<?xml version="1.0" encoding="utf-8"?>
<!-- Generator: Adobe Illustrator 27.5.0, SVG Export Plug-In . SVG Version: 6.00 Build 0)  -->
<svg version="1.1" id="Слой_1" xmlns="http://www.w3.org/2000/svg" xmlns:xlink="http://www.w3.org/1999/xlink" x="0px" y="0px"
	 viewBox="0 0 2000 2000" style="enable-background:new 0 0 2000 2000;" xml:space="preserve">
<rect style="fill:#FFFFFF;" width="2000" height="2000"/>
<path style="fill:#F9E8F2;" d="M1893.48,1418.59c-17.631,43.221-38.87,79.66-62.36,109.95c-0.01,0.021-0.01,0.021-0.021,0.03
	c-6.96,8.99-14.13,17.43-21.449,25.35c-0.381,0.41-0.75,0.811-1.131,1.21c-0.1,0.11-0.21,0.23-0.319,0.34
	c-2.7,2.891-5.431,5.71-8.181,8.47c-2.39,2.391-4.8,4.73-7.22,7.021c-3.05,2.89-6.13,5.69-9.229,8.41
	c-5.41,4.76-10.881,9.26-16.4,13.51c-0.7,0.55-1.41,1.08-2.12,1.62c-21.61,16.38-43.899,28.97-66.1,38.1h-0.011
	c-0.029,0.011-0.06,0.03-0.09,0.04c-19.619,8.07-39.16,13.44-58.09,16.351c-20.84,3.21-41.01,5.859-60.57,8.02
	c-2.25,0.26-4.5,0.5-6.739,0.74c-1,0.1-1.99,0.21-2.98,0.311c-0.28,0.029-0.55,0.06-0.819,0.09
	c-19.91,2.05-39.181,3.609-57.87,4.739c-2.63,0.16-5.25,0.32-7.86,0.46c-6.34,0.351-12.609,0.65-18.82,0.9
	c-2.149,0.09-4.3,0.18-6.439,0.25c-0.79,0.03-1.57,0.061-2.35,0.09c-1.601,0.05-3.2,0.1-4.791,0.15
	c-47.88,1.5-91.869,0.37-133.05-1.92c-0.01,0-0.01,0-0.02,0c-44.23-2.45-85.23-6.23-124.34-9.5c-1.431-0.12-2.851-0.24-4.271-0.36
	c-8.46-0.7-16.84-1.37-25.14-2.01c-4.95-0.37-9.87-0.73-14.771-1.07c-45.939-3.17-89.869-4.58-134.21-0.94
	c-3.31,0.271-6.62,0.561-9.93,0.9c-1.2,0.11-2.41,0.24-3.61,0.37c-14.279,1.5-28.63,3.56-43.13,6.29
	c-25.65,4.82-51.76,11.71-78.77,21.28c-6.37,2.25-12.8,4.659-19.28,7.22c0,0-5.11,1.189-14.48,2.98
	c-6.19,1.189-14.24,2.64-23.91,4.189c-20.6,3.311-48.56,7.08-81.54,9.7c-0.1,0.01-0.21,0.02-0.31,0.03h-0.08
	c-40.98,3.239-89.7,4.72-141.72,1.359c-9.43-0.6-18.96-1.37-28.58-2.31c-37.64-3.69-76.54-10.09-115.11-20.28
	c-13.44-3.55-26.84-7.56-40.14-12.09c-1.13-0.38-2.27-0.77-3.4-1.17c-14.31-4.96-28.48-10.521-42.44-16.73
	c-1.26-0.55-2.52-1.119-3.77-1.689c-20.99-9.54-42.38-21.34-63.53-35.19c-9.87-6.45-19.68-13.35-29.38-20.68
	c-1.05-0.79-2.1-1.59-3.14-2.38c-0.54-0.42-1.07-0.83-1.61-1.25c-69.35-53.561-132.43-128.801-166.08-217.96
	c-8.9-23.57-15.74-48.11-20.09-73.48c-6.09-35.39-7.34-72.39-2.6-110.62c2.9-23.35,8.03-47.16,15.67-71.34
	c5.41-17.15,12.08-34.479,20.1-51.96c3.77-8.21,8.44-20.88,16.66-36.64c20.61-39.49,63.53-98.36,170.47-155.06
	c60.94-32.31,142.66-63.92,252.89-90.82c26.9-6.57,55.5-12.86,85.91-18.81c1.3-0.25,2.59-0.51,3.88-0.78
	c95.29-19.48,172.26-66.13,244.1-121.02c25.05-19.14,49.48-39.29,73.85-59.63c13.7-11.44,27.38-22.94,41.14-34.37
	c115.71-96.07,237.02-186.53,423.101-186.52c353.239,0,451.31,246.18,490.14,606.41
	C1958.32,1164.689,1936.88,1312.18,1893.48,1418.59z"/>
<rect x="1611.285" y="630.782" style="fill:#F9E5EF;" width="121.69" height="841.294"/>
<path style="fill:#0E2549;" d="M1734.477,888.461v-90.356l0.219-0.699l-0.219-0.162v-88.795l0.334-1.066l-0.334-0.236v-77.864
	h-124.691v78.61l-0.22,0.702l0.22,0.162v89.11l-0.237,0.706l0.237,0.178v90.356l-0.224,0.714l0.224,0.161v84.599l-0.237,0.602
	l0.237,0.233v108.266l-0.215,0.671l0.215,0.173v389.051h124.691V889.342l0.236-0.703L1734.477,888.461z M1731.477,886.213
	L1615.787,799.5h115.689V886.213z M1731.477,795.026L1615.836,709.5h115.641V795.026z M1731.477,705.025l-102.892-72.743h102.892
	V705.025z M1623.389,632.282l104.977,74.218h-115.58v-74.218H1623.389z M1728.425,796.5h-115.64v-85.525L1728.425,796.5z
	 M1728.475,887.712h-115.689v-86.713L1728.475,887.712z M1731.477,890.712v83.158l-115.539-83.158H1731.477z M1725.531,973.287
	h-112.746V892.14L1725.531,973.287z M1612.785,978.366l104.455,102.739l-104.455,1.186V978.366z M1612.785,1086.942l109.391,88.125
	h-109.391V1086.942z M1612.785,1470.576v-292.509h113.602l1.07-0.01l0.71-2.016l-112.69-90.781l105.352-1.196l1.015-0.009
	l0.768-1.876l-107.661-105.893h115.189l1.104-0.01l0.234-0.733v495.032H1612.785z"/>
<path style="fill:#0E2549;" d="M620.657,960.497c-13.507,0-24.495-10.988-24.495-24.495c0-0.829,0.671-1.5,1.5-1.5
	c0.829,0,1.5,0.671,1.5,1.5c0,11.852,9.643,21.495,21.495,21.495c11.853,0,21.496-9.643,21.496-21.495
	c0-11.853-9.643-21.496-21.496-21.496h-1.5v-26.685c0-0.829,0.671-1.5,1.5-1.5c0.829,0,1.5,0.671,1.5,1.5v23.73
	c12.811,0.778,22.996,11.447,22.996,24.45C645.152,949.508,634.164,960.497,620.657,960.497z"/>
<path style="fill:#0E2549;" d="M574.881,817.05c-0.829,0-1.5-0.671-1.5-1.5V706.596c0-0.829,0.671-1.5,1.5-1.5
	c0.829,0,1.5,0.671,1.5,1.5V815.55C576.381,816.378,575.709,817.05,574.881,817.05z"/>
<path style="fill:#0E2549;" d="M664.672,817.05c-0.829,0-1.5-0.671-1.5-1.5V706.596c0-0.829,0.671-1.5,1.5-1.5s1.5,0.671,1.5,1.5
	V815.55C666.172,816.378,665.5,817.05,664.672,817.05z"/>
<polygon style="fill:#F9E5EF;" points="1640.083,641 823.839,641 942.942,547 1640.083,547 "/>
<path style="fill:#0E2549;" d="M942.422,545.5l-122.905,97h822.066v-97H942.422z M1405.748,548.5h84.2l-84.2,88.74V548.5z
	 M1317.932,548.5h82.863l-82.863,88.697V548.5z M1226.209,548.5h86.663l-86.663,88.815V548.5z M1133.209,548.5h87.906
	l-87.906,88.852V548.5z M1039.356,548.5h88.735l-88.735,88.874V548.5z M943.833,548.5h90.359l-90.359,88.919V548.5z
	 M1036.356,550.58v88.92h-90.36L1036.356,550.58z M1130.209,550.626V639.5h-88.736L1130.209,550.626z M1223.209,550.649V639.5
	h-87.905L1223.209,550.649z M1314.932,550.684V639.5h-86.664L1314.932,550.684z M1402.748,550.803V639.5h-82.863L1402.748,550.803z
	 M1491.939,550.76v88.74h-84.2L1491.939,550.76z M1494.939,548.5h90.883l-90.883,88.921V548.5z M940.833,550.575V639.5H828.161
	L940.833,550.575z M1638.583,639.5h-141.479l93.007-91h48.472V639.5z"/>
<polygon style="fill:#EAB7C2;" points="1725.637,523 1680.687,317 1628.392,523 1587.609,523 1587.609,651 1765.85,651 1765.85,523 
	"/>
<polygon style="fill:#EAB7C2;" points="670.695,864.278 620.657,894.254 570.619,864.278 570.619,811.717 670.695,811.717 "/>
<path style="fill:#0E2549;" d="M1331,810.408c-0.828,0-1.5-0.671-1.5-1.5V704c0-0.829,0.672-1.5,1.5-1.5s1.5,0.671,1.5,1.5v104.908
	C1332.5,809.736,1331.828,810.408,1331,810.408z"/>
<path style="fill:#0E2549;" d="M1138.316,782.076h-15.397V737.5h15.397c0.828,0,1.5-0.671,1.5-1.5s-0.672-1.5-1.5-1.5h-15.397V704
	c0-0.829-0.672-1.5-1.5-1.5s-1.5,0.671-1.5,1.5v30.5h-79.898V704c0-0.829-0.672-1.5-1.5-1.5s-1.5,0.671-1.5,1.5v30.5H1022.5
	c-0.828,0-1.5,0.671-1.5,1.5s0.672,1.5,1.5,1.5h14.521v44.576H1022.5c-0.828,0-1.5,0.671-1.5,1.5s0.672,1.5,1.5,1.5h14.521v23.832
	c0,0.829,0.672,1.5,1.5,1.5s1.5-0.671,1.5-1.5v-23.832h79.898v23.832c0,0.829,0.672,1.5,1.5,1.5s1.5-0.671,1.5-1.5v-23.832h15.397
	c0.828,0,1.5-0.671,1.5-1.5S1139.145,782.076,1138.316,782.076z M1040.021,782.076V737.5h79.898v44.576H1040.021z"/>
<path style="fill:#EAB7C2;" d="M968.083,808.908v731.241h484.239V808.908H968.083z M1107.695,955.981h-67v-88.404h67V955.981z
	 M1313,1135.982h-67v-88.404h67V1135.982z M1313,954.557h-67v-88.404h67V954.557z"/>
<path style="fill:#0E2549;" d="M742.701,1097.581h-82.617v-39.517h80.828c0.829,0,1.5-0.672,1.5-1.5s-0.671-1.5-1.5-1.5h-80.828
	v-66.665c0-0.829-0.671-1.5-1.5-1.5s-1.5,0.671-1.5,1.5v66.665h-66.94v-66.665c0-0.829-0.671-1.5-1.5-1.5
	c-0.829,0-1.5,0.671-1.5,1.5v66.665h-24.738c-0.829,0-1.5,0.672-1.5,1.5s0.671,1.5,1.5,1.5h24.738v39.517h-22.949
	c-0.829,0-1.5,0.672-1.5,1.5s0.671,1.5,1.5,1.5h22.949v24.149c0,0.828,0.671,1.5,1.5,1.5c0.829,0,1.5-0.672,1.5-1.5v-24.149h66.94
	v24.149c0,0.828,0.671,1.5,1.5,1.5s1.5-0.672,1.5-1.5v-24.149h82.617c0.829,0,1.5-0.672,1.5-1.5S743.529,1097.581,742.701,1097.581z
	 M590.143,1097.581v-39.517h66.94v39.517H590.143z"/>
<path style="fill:#EAB7C2;" d="M842.61,1124.985v567.265c-21.416,3.29-50.483,7.036-84.77,9.641c-0.104,0.01-0.218,0.02-0.322,0.029
	h-0.083c-42.603,3.221-94.106,4.004-148.187,0.664c-9.803-0.596-19.004-1.757-29.005-2.691
	c-39.13-3.666-79.424-13.127-119.522-23.254v-551.653H842.61z"/>
<path style="fill:#0E2549;" d="M326.167,1373.027l-2.676-2.21V839c0-0.829-0.671-1.5-1.5-1.5c-0.829,0-1.5,0.671-1.5,1.5v275.594
	H99.668c-0.829,0-1.5,0.672-1.5,1.5s0.671,1.5,1.5,1.5h218.155l-150.465,124.271l-103.32-85.332
	c-0.639-0.529-1.584-0.438-2.112,0.201c-0.527,0.639-0.437,1.584,0.202,2.111l102.875,84.965l-78.9,65.165
	c-0.639,0.527-0.729,1.473-0.202,2.111c0.297,0.359,0.726,0.545,1.158,0.545c0.336,0,0.675-0.112,0.954-0.344l79.345-65.532
	l150.466,124.271H96.201c-0.829,0-1.5,0.672-1.5,1.5s0.671,1.5,1.5,1.5H320.49V1613.8c0,0.828,0.671,1.5,1.5,1.5
	c0.829,0,1.5-0.672,1.5-1.5v-240.772H326.167z M169.712,1243.811l150.778-124.529v249.059L169.712,1243.811z"/>
<rect x="240.69" y="1025.993" style="fill:#EAB7C2;" width="65" height="88.602"/>
<rect x="135.857" y="1025.992" style="fill:#EAB7C2;" width="65" height="88.603"/>
<g>
	<path style="fill:#E2474B;" d="M1808.52,1555.13l-12.63,15.76c-3.01,4.74-6.59,9.65-10.68,13.721l3.75,11.96l-21.18,6.64
		l-2.73-8.71c-21.61,16.38-43.899,28.97-66.1,38.1h-0.011c-0.029,0.011-0.06,0.03-0.09,0.04c-19.619,8.07-39.16,13.44-58.09,16.351
		c-20.84,3.21-41.01,5.859-60.57,8.02c0.311,5.5,0.49,11.16,0.291,15.21c-0.011,0.21-0.051,0.391-0.131,0.561
		c3.381,5.05,5.24,7.819,5.24,7.819s11.63,25.261-11.21,41.311c-1.319,0.93-2.59,1.77-3.83,2.54c0.7-21.08,1.54-41.14,2.521-59.7
		c0.05-0.88,0.09-1.75,0.14-2.61c0.08-1.479,0.16-2.939,0.24-4.39c1.89-33.66,4.3-62.01,7.35-82.1c1.04-6.881,2.16-12.79,3.36-17.62
		c2.279-9.17,4.46-17.46,6.529-24.96c0-0.01,0-0.01,0-0.01c0.07-0.24,0.131-0.471,0.2-0.711c9.29-33.529,16.45-51.09,21.46-60.27
		c5.771-10.61,8.681-10.061,8.681-10.061l36.75,0.36l75.2,0.72l29.649,0.29l11.24,0.11c0,0,6.37,3.82,14.36,19.2
		c3.939,7.54,8.25,17.87,12.409,31.89c2.21,7.49,4.38,16.03,6.42,25.76c0.311,1.48,0.62,2.971,0.921,4.511v0.01
		c0.329,1.649,0.649,3.34,0.97,5.069c0.16,0.851,0.31,1.711,0.47,2.58c0.08,0.45,0.16,0.92,0.23,1.4
		C1809.27,1554.33,1808.9,1554.73,1808.52,1555.13z"/>
	<path style="fill:#0E2549;" d="M1690.286,986.751c0,0-24.147-2.17-51.131,31.701c-26.983,33.871-22.045,129.883,64.288,118.694
		c25.263-3.273-31.601,150.727-31.601,150.727l178.968,19.982c0,0,19.94-24.018,13.421-42.468
		c-4.393-12.429-42.482-37.632-44.558-52.702c-1.417-10.294,12.568-36.945,5.857-49.175c-12.244-22.313-93.313-16.475-74.44-32.383
		C1794.22,1094.774,1778.115,979.457,1690.286,986.751z"/>
	<path style="fill:#FFFFFF;" d="M1731.525,1119.839c0,0-3.037,74.622-0.188,78.549c9.752,13.437,38.643,25.262,45.236,27.037
		c6.594,1.776-107.827,45.419-107.827,45.419l-54.934-26.919l21.175-19.104c0,0,17.799-8.953,25.621-17.032
		c7.822-8.08,11.626-83.999,11.626-83.999L1731.525,1119.839z"/>
	<path style="fill:#0E2549;" d="M1668.673,1272.478l-57.51-28.182l22.971-20.725l0.181-0.091
		c0.176-0.089,17.664-8.934,25.217-16.735c5.451-5.631,9.688-52.74,11.206-83.031l0.066-1.333l62.288-4.149l-0.067,1.668
		c-1.144,28.103-2.272,74.037-0.435,77.665c9.114,12.552,36.824,24.379,44.374,26.412c0.973,0.262,1.352,1.002,1.383,1.607
		c0.087,1.718,0.177,3.493-54.919,25.514c-26.751,10.692-53.875,21.044-54.146,21.147L1668.673,1272.478z M1616.465,1243.554
		l52.356,25.656c36.92-14.091,94.359-36.817,105.095-43.044c-9.386-3.194-34.56-14.177-43.791-26.897
		c-2.842-3.915-0.937-58.486-0.166-77.822l-56.294,3.751c-0.646,12.287-4.336,75.74-11.978,83.634
		c-7.572,7.821-23.828,16.213-25.843,17.237L1616.465,1243.554z"/>
	<path style="fill:#FFFFFF;" d="M1730.597,1132.025c8.769-5.817,24.156-17.586,24.569-29.072
		c0.412-11.486-12.688-10.143-16.688-8.328c-2.664,1.209,0.055-56.24,0.055-56.24l-88.891-4.759c0,0-13.172,49.39-9.992,81.106
		c3.193,31.848,17.795,40.087,40.968,41.123c11.479,0.513,20.497-1.975,27.634-5.615L1730.597,1132.025z"/>
	<path style="fill:#0E2549;" d="M1683.543,1157.421c-0.989,0-1.986-0.022-2.992-0.067c-13.356-0.597-22.271-3.491-28.905-9.384
		c-7.513-6.674-11.925-17.497-13.487-33.088c-3.17-31.623,9.901-81.146,10.034-81.643l0.313-1.176l91.596,4.904l-0.07,1.489
		c-1.089,23.006-1.681,48.585-0.8,54.299c3.227-0.977,9.159-1.639,13.348,1.168c1.965,1.317,4.27,3.963,4.085,9.083
		c-0.433,12.055-15.998,24.139-25.238,30.269c-0.689,0.456-1.621,0.271-2.079-0.421c-0.458-0.69-0.27-1.621,0.421-2.079
		c8.76-5.812,23.514-17.162,23.898-27.876c0.109-3.046-0.792-5.166-2.758-6.483c-3.424-2.296-9.418-1.511-11.81-0.425
		c-0.542,0.246-1.157,0.193-1.65-0.142c-1.005-0.681-2.143-1.453-1.414-29.986c0.282-11.076,0.757-22.14,0.933-26.06l-86.18-4.614
		c-1.948,7.673-12.489,51.01-9.645,79.394c3.188,31.791,17.494,38.788,39.543,39.774c9.879,0.431,18.927-1.394,26.885-5.453
		c0.739-0.376,1.642-0.083,2.018,0.654c0.377,0.738,0.084,1.642-0.654,2.018C1701.321,1155.46,1692.792,1157.421,1683.543,1157.421z
		"/>
	<path style="fill:#EAB7C2;" d="M1881.75,1344.67c0.05,0.25-0.73,1.03-2.17,2.21l-0.01,0.01c-2.03,1.66-5.36,4.141-9.48,7.101
		c-14.52,10.42-38.87,26.81-50.92,34.88c-4.439,2.96-7.21,4.8-7.21,4.8l-17.74-23.66l2.15,28.49l3.59,47.65l2.42,32.109l2.29,30.36
		l2.39,31.729l0.811,10.711l0.33,4.409l-12.311,15.42l-3.09,0.07l-11.79,0.26l-23.1,0.511l-4.91,0.109l-165.59,3.67l-6.61,0.141
		l-15.79,0.35l-1.229,0.03l0.72-9.63v-0.03l3.32-44.64l9.689-130.24l0.61-8.2c0,0,0,0,0-0.01l0.49-6.561l0.029-0.399l-2.079,0.58
		l-21.851,6.05l-14.25,3.95c0,0,2.31-13.2,7.22-32.28c1.391-5.431,3-11.33,4.83-17.55c7.061-24.07,17.37-52.76,31.311-76.271
		c7.949-13.399,17.08-25.13,27.46-33.35c7.5-5.95,15.659-10.07,24.489-11.67c0.391-0.07,0.83-0.08,1.301-0.021
		c1.75,0.2,4.029,1.21,6.59,2.73c0.43,0.25,0.859,0.52,1.3,0.8c0.601,0.38,1.22,0.79,1.851,1.21
		c11.439,7.83,26.09,22.49,26.09,22.49s7.27-3.68,17.21-8.69c6.229-3.14,13.51-6.8,20.71-10.399c7.989-3.99,15.89-7.91,22.16-10.98
		c3.8-1.85,6.989-3.39,9.26-4.439c2.16-1,3.47-1.561,3.649-1.53c5.3,0.88,10.811,2.59,16.11,4.71c3.74,1.49,7.37,3.18,10.76,4.93
		c4.12,2.12,7.88,4.32,11.03,6.32c35.46,22.58,59.87,48.3,75.59,71.779C1872.17,1313.811,1879.21,1331.43,1881.75,1344.67z"/>
	<path style="fill:#E2474B;" d="M1795.89,1570.89l-3.09,0.07l-11.79,0.26l-23.1,0.511l-4.91,0.109l-165.59,3.66
		c0.06-0.74,0.12-1.5,0.18-2.26l3.3-40.891l11.36-140.859l5.37-66.5v-0.04l1.3-16.11l2.36-0.01l2.729-0.02l14.88-0.101
		l104.091-0.649l3.97-0.021l14.859-0.101l13.421-0.079c0,0,11.029,69.439,31.14,90.64c1.31,1.39,2.66,2.57,4.05,3.51l2.9,54.87
		l1.1,20.74l1.54,29.08l2.021,38.16v0.01l0.3,5.75l0.239,4.51L1795.89,1570.89z"/>
	<polygon style="fill:#0E2549;" points="1788.96,1596.57 1767.78,1603.21 1765.05,1594.5 1763.99,1591.12 1757.91,1571.73 
		1753.52,1557.71 1741.49,1519.34 1752.08,1516.02 1762.67,1512.7 1767.85,1529.23 1781.01,1571.22 1783.57,1579.37 
		1785.21,1584.61 	"/>
	<path style="fill:#EAB7C2;" d="M1771.659,1460.564l-95.969,30.091c-7.026,2.203-14.509-1.707-16.712-8.733l-2.647-8.443
		c-2.203-7.026,1.707-14.509,8.733-16.712l95.97-30.09c7.026-2.203,14.509,1.707,16.712,8.733l2.647,8.443
		C1782.596,1450.88,1778.686,1458.361,1771.659,1460.564z"/>
	<path style="fill:#1B2746;" d="M1671.684,1492.773c-2.36,0-4.701-0.57-6.853-1.694c-3.512-1.836-6.099-4.929-7.284-8.71
		l-2.647-8.441c-2.446-7.805,1.912-16.146,9.716-18.593l95.97-30.09c3.783-1.184,7.797-0.826,11.309,1.008
		c3.512,1.835,6.099,4.928,7.284,8.708l2.647,8.442c1.185,3.781,0.827,7.798-1.008,11.309c-1.835,3.512-4.929,6.099-8.71,7.284
		l-95.968,30.091C1674.676,1492.546,1673.176,1492.773,1671.684,1492.773z M1765.017,1427.564c-1.171,0-2.359,0.176-3.533,0.544
		l-95.97,30.09c-3.017,0.945-5.483,3.009-6.947,5.811c-1.464,2.801-1.75,6.005-0.804,9.021l2.647,8.442
		c0.945,3.017,3.009,5.484,5.811,6.948c2.802,1.466,6.006,1.749,9.021,0.804l95.969-30.091c6.227-1.952,9.704-8.605,7.752-14.832
		l-2.647-8.441C1774.73,1430.807,1770.051,1427.564,1765.017,1427.564z"/>
	<polygon style="fill:#0E2549;" points="1750.645,1516.47 1743.921,1495.023 1807.461,1475.101 1795.243,1436.133 
		1779.519,1441.063 1778.62,1438.2 1797.208,1432.373 1811.221,1477.065 1747.681,1496.988 1753.508,1515.571 	"/>
	<path style="fill:#FFFFFF;" d="M1897.6,1449.67c-5.699,19.35-41.16,54.57-66.479,78.87c-0.01,0.021-0.01,0.021-0.021,0.03
		c-9.529,9.149-17.63,16.75-22.149,21.369c-0.23,0.24-0.46,0.461-0.67,0.681c-0.141,0.149-0.28,0.3-0.41,0.44
		c-0.681,0.709-1.24,1.319-1.681,1.84c-0.979,1.149-3.09,5.539-6.17,11.039c-1.229,2.181-2.609,4.541-4.13,6.95
		c-3.01,4.74-6.59,9.65-10.68,13.721c-3.71,3.689-7.84,6.68-12.33,8.21c-2.04,0.689-3.94,0.66-5.71,0.06
		c-1.11-0.37-2.17-0.979-3.18-1.76c-4.851-3.79-8.46-11.81-10.99-19.28c-0.87-2.59-1.62-5.13-2.24-7.39
		c-0.67-2.42,0.49-4.62,2.76-6.74c4.19-3.92,12.15-7.59,19.36-12.01c-1.84-5.45-4.16-13.38-5.01-16.32
		c-0.01-0.05-0.021-0.1-0.021-0.149c-0.069-0.57,0.45-1.041,1.04-0.9c3.96,0.91,11.101,6.76,14.37,10.62
		c4.48-5.71,10.63-14.44,17.38-24.36c1.32-1.95,2.67-3.939,4.03-5.97c0.42-0.63,0.85-1.271,1.29-1.92
		c11.16-16.69,23.11-35.25,31.39-48.23c4.21-6.6-8.52-43.26-18.18-69.6c-0.04-0.11-0.08-0.22-0.12-0.33
		c-5.58-15.17-10.1-26.84-9.71-27.2c0,0,28.85-30.38,51.08-18.67c3.01,1.59,6.21,5.49,9.43,10.91c0.08,0.13,0.15,0.27,0.24,0.41
		c9.04,15.46,18.15,42.83,23.391,64.6C1897.04,1433.35,1898.82,1445.53,1897.6,1449.67z"/>
	<path style="fill:#0E2549;" d="M1769.889,1594.833c-1.085,0-2.154-0.178-3.201-0.532c-1.206-0.403-2.425-1.074-3.614-1.994
		c-4.266-3.332-8.131-10.055-11.494-19.985c-0.779-2.319-1.541-4.833-2.266-7.475c-0.778-2.811,0.262-5.505,3.182-8.232
		c2.935-2.745,7.532-5.316,12.399-8.038c2.038-1.141,4.137-2.313,6.184-3.538c-1.835-5.566-3.996-12.983-4.649-15.242l-0.03-0.127
		c-0.022-0.112-0.038-0.22-0.045-0.325c-0.067-0.731,0.216-1.454,0.765-1.944c0.572-0.511,1.366-0.708,2.119-0.528
		c3.941,0.905,10.239,5.876,13.935,9.745c3.957-5.158,9.284-12.666,16.228-22.87l0.663-0.979c1.106-1.633,2.23-3.293,3.361-4.981
		c0.42-0.63,0.852-1.274,1.295-1.927c11.226-16.789,23.254-35.477,31.366-48.195c2.83-4.436-3.335-27.407-18.323-68.276
		l-0.122-0.335c-1.422-3.865-2.776-7.509-3.998-10.794c-6.348-17.068-6.348-17.068-5.32-18.02
		c1.142-1.205,29.832-30.993,52.798-18.896c3.144,1.661,6.421,5.413,10.021,11.472c0.032,0.053,0.076,0.129,0.12,0.207
		c0.03,0.053,0.06,0.107,0.094,0.161c9.314,15.926,18.55,44.139,23.585,65.057c1.825,7.567,5.879,25.822,4.1,31.854l0,0
		c-5.57,18.913-38.52,52.303-66.682,79.339l-0.009,0.019l-0.239,0.229c-2.813,2.702-5.53,5.294-8.062,7.711
		c-5.833,5.566-10.871,10.374-14.024,13.597c-0.112,0.117-0.233,0.239-0.353,0.358l-0.698,0.731c-0.7,0.73-1.229,1.31-1.637,1.791
		c-0.499,0.585-1.594,2.637-2.86,5.013c-0.913,1.71-1.946,3.648-3.146,5.791c-1.461,2.59-2.824,4.885-4.17,7.018
		c-3.651,5.751-7.213,10.323-10.89,13.983c-4.232,4.208-8.574,7.091-12.905,8.566
		C1772.193,1594.636,1771.032,1594.833,1769.889,1594.833z M1769.653,1530.151c0.931,3.188,2.992,10.165,4.647,15.069l0.383,1.133
		l-1.02,0.626c-2.416,1.48-4.901,2.87-7.306,4.215c-4.703,2.631-9.146,5.115-11.814,7.611c-2.699,2.521-2.628,4.201-2.339,5.244
		c0.711,2.59,1.456,5.05,2.217,7.313c3.171,9.363,6.702,15.614,10.492,18.576c0.916,0.708,1.837,1.221,2.73,1.519
		c1.54,0.522,3.094,0.503,4.755-0.058c3.893-1.326,7.848-3.969,11.753-7.853c3.518-3.501,6.942-7.904,10.471-13.461
		c1.317-2.088,2.656-4.34,4.09-6.883c1.183-2.112,2.209-4.036,3.114-5.733c1.515-2.839,2.515-4.714,3.221-5.542
		c0.445-0.526,1.016-1.151,1.74-1.906l0.399-0.43c0.121-0.126,0.238-0.243,0.358-0.364l0.322-0.326
		c3.199-3.271,8.254-8.095,14.107-13.681c2.475-2.361,5.126-4.892,7.899-7.554l0.008-0.017l0.198-0.192
		c27.938-26.813,60.696-59.933,66.08-78.212l0,0c1.075-3.647-0.511-15.26-4.139-30.305c-4.984-20.704-14.099-48.582-23.228-64.194
		c-0.034-0.051-0.092-0.152-0.147-0.251l-0.074-0.129c-3.276-5.514-6.251-8.996-8.854-10.371
		c-19.413-10.228-44.906,13.999-48.79,17.867c0.563,2.011,2.979,8.51,5.523,15.349c1.223,3.289,2.579,6.936,4.005,10.811
		l0.122,0.336c16.189,44.145,21.584,65.354,18.034,70.918c-8.12,12.731-20.161,31.438-31.407,48.258
		c-0.443,0.654-0.871,1.291-1.289,1.918c-1.135,1.695-2.263,3.36-3.371,4.997l-0.665,0.981
		c-7.644,11.233-13.349,19.229-17.442,24.445l-1.136,1.447l-1.188-1.403C1779.104,1536.363,1773.282,1531.625,1769.653,1530.151z
		 M1768.554,1529.792c0.002,0.001,0.005,0.001,0.007,0.002C1768.559,1529.793,1768.556,1529.792,1768.554,1529.792z
		 M1810.518,1362.279c-0.052,0.054-0.082,0.085-0.09,0.094C1810.46,1362.343,1810.49,1362.312,1810.518,1362.279z"/>
	<path style="fill:#FFFFFF;" d="M1587.41,1575.51c-1.26,16.5-2.1,27.51-2.18,28.98c-0.391,7.029,15.83,27.75,14.659,32.57
		c-1.18,4.819-17.819-13.16-17.819-13.16s-3.37,14.109-2.931,18.899c0.32,3.42,0.75,8.73,1.05,14.21
		c0.311,5.5,0.49,11.16,0.291,15.21c-0.011,0.21-0.051,0.391-0.131,0.561c-0.47,1.17-2.22,1.39-2.899,0.13
		c-1.17-2.16-2.7-4.99-4.38-8.16c-1.101-2.08-2.26-4.32-3.42-6.6c-0.87-1.711-1.75-3.45-2.59-5.17v-0.011
		c-3.511-7.12-6.561-13.96-7.301-17.51c-1.199-5.729,6.67-32.81,6.67-32.81l-1.42-26.65l-0.51-9.6l-1.65-30.83l-3.21-60.25v-0.01
		l-3.029-56.78l-0.66-12.351l-0.78-14.689l-0.46-8.54L1554,1369.6l20.82,1.271l5.399,0.319l22.95,1.4c0,0-0.56,7.13-1.48,18.9
		c-2.379,30.55-7.189,92.34-11,141.57c0,0,0,0,0,0.01c-1.159,14.949-2.229,28.76-3.1,40.17c-0.06,0.76-0.12,1.52-0.18,2.26
		C1587.41,1575.51,1587.41,1575.51,1587.41,1575.51z"/>
	<path style="fill:#0E2549;" d="M1578.853,1675.261c-1.139,0-2.171-0.616-2.723-1.639c-1.17-2.161-2.703-4.995-4.385-8.17
		c-1.104-2.087-2.268-4.335-3.432-6.621c-0.874-1.719-1.758-3.466-2.601-5.192l-0.152-0.319c-4.158-8.456-6.604-14.361-7.27-17.553
		c-1.209-5.779,5.539-29.523,6.627-33.29L1552.413,1368l52.372,3.186l-1.601,20.422c-2.378,30.538-7.186,92.289-10.995,141.511
		l-0.005,0.068c-1.159,14.948-2.229,28.758-3.099,40.168l-0.18,2.27c-1.172,15.342-2.097,27.459-2.178,28.948
		c-0.177,3.173,4.227,10.769,7.766,16.872c4.689,8.089,7.529,13.188,6.854,15.971c-0.236,0.965-0.883,1.649-1.774,1.881
		c-3.309,0.847-11.192-6.589-16.665-12.314c-1.06,4.852-2.554,12.637-2.274,15.682c0.197,2.107,0.695,7.724,1.054,14.265
		c0.371,6.576,0.469,11.747,0.291,15.365c-0.021,0.416-0.11,0.783-0.272,1.127c-0.404,1.016-1.468,1.768-2.674,1.836
		C1578.973,1675.26,1578.912,1675.261,1578.853,1675.261z M1568.561,1652.633c0.79,1.611,1.613,3.237,2.427,4.838
		c1.156,2.271,2.312,4.504,3.409,6.578c1.677,3.164,3.204,5.99,4.373,8.147c0.032,0.06,0.035,0.065,0.094,0.064
		c0.048-0.003,0.089-0.025,0.095-0.039c0.197-3.589,0.1-8.653-0.267-15.127c-0.354-6.491-0.849-12.062-1.045-14.155
		c-0.457-4.981,2.825-18.802,2.965-19.388l0.652-2.731l1.907,2.062c5.696,6.153,12.871,12.681,15.287,13.429
		c-0.115-2.246-3.813-8.623-6.56-13.361c-4.315-7.444-8.392-14.476-8.166-18.542c0.079-1.447,0.84-11.433,2.178-28.955l0.005-0.072
		l0.18-2.257c0.868-11.393,1.938-25.183,3.095-40.11l0.005-0.068c3.811-49.23,8.621-111.021,11-141.57l1.361-17.38l-45.969-2.795
		l12.354,231.625l-0.071,0.245c-3.121,10.741-7.466,28.149-6.643,32.083c0.614,2.943,3.097,8.875,7.179,17.154L1568.561,1652.633z"
		/>
	<path style="fill:#0E2549;" d="M1658.864,1092.004c-0.131,0-0.263-0.008-0.396-0.025c-1.643-0.217-2.798-1.725-2.582-3.367
		l0.381-2.888c0.217-1.642,1.719-2.801,3.367-2.582c1.643,0.217,2.798,1.725,2.582,3.367l-0.381,2.888
		C1661.636,1090.905,1660.347,1092.004,1658.864,1092.004z"/>
	<path style="fill:#0E2549;" d="M1698.38,1093.732c-0.131,0-0.263-0.008-0.396-0.025c-1.643-0.217-2.798-1.725-2.582-3.367
		l0.381-2.888c0.217-1.642,1.717-2.796,3.367-2.582c1.643,0.217,2.798,1.725,2.582,3.367l-0.381,2.888
		C1701.151,1092.634,1699.862,1093.732,1698.38,1093.732z"/>
	<path style="fill:#0E2549;" d="M1711.596,1080.477c-0.271,0-0.544-0.072-0.79-0.226c-7.169-4.449-20.415-1.415-20.548-1.385
		c-0.808,0.19-1.613-0.311-1.803-1.117c-0.189-0.806,0.311-1.613,1.116-1.803c0.591-0.14,14.584-3.353,22.816,1.756
		c0.704,0.437,0.92,1.361,0.483,2.065C1712.587,1080.226,1712.097,1080.477,1711.596,1080.477z"/>
	<path style="fill:#0E2549;" d="M1670.75,1108.173c-0.123,0-0.248-0.015-0.373-0.047c-0.096-0.024-0.228-0.053-0.388-0.089
		c-5.545-1.228-8.205-3.59-7.906-7.023c0.18-2.07,1.728-3.718,3.521-5.627c1.759-1.872,3.752-3.993,4.833-6.905
		c0.289-0.777,1.149-1.171,1.929-0.884c0.776,0.288,1.172,1.151,0.884,1.929c-1.292,3.479-3.603,5.938-5.459,7.915
		c-1.41,1.501-2.629,2.798-2.719,3.832c-0.199,2.289,3.081,3.285,5.566,3.835c0.2,0.044,0.364,0.081,0.483,0.111
		c0.803,0.205,1.286,1.022,1.081,1.825C1672.028,1107.723,1671.419,1108.173,1670.75,1108.173z"/>
	<path style="fill:#0E2549;" d="M1669.142,1077.689c-0.159,0-0.321-0.025-0.48-0.079c-9.292-3.144-16.949-0.409-17.025-0.382
		c-0.775,0.285-1.64-0.113-1.925-0.892c-0.285-0.777,0.113-1.64,0.892-1.925c0.352-0.129,8.738-3.121,19.02,0.356
		c0.785,0.266,1.206,1.117,0.94,1.901C1670.351,1077.296,1669.768,1077.689,1669.142,1077.689z"/>
	<path style="fill:#0E2549;" d="M1658.041,1117.815c-1.449,1.603,6.034,8.092,12.151,8.097c15.377,0.012,20.134-10.92,16.672-9.199
		c-1.306,0.649-9.065,4.125-16.672,3.566C1660.435,1119.563,1659.686,1115.996,1658.041,1117.815z"/>
	<path style="fill:#0E2549;" d="M1698.755,1629.624c-0.75,0-1.398-0.563-1.488-1.325l-3.773-32.24l-18.566-13.282
		c-0.674-0.481-0.829-1.419-0.347-2.093c0.482-0.675,1.419-0.829,2.093-0.347l19.646,14.054l3.928,33.559
		c0.096,0.823-0.493,1.568-1.315,1.665C1698.872,1629.621,1698.813,1629.624,1698.755,1629.624z"/>
	<path style="fill:#0E2549;" d="M1642.072,1033.626c0,0,80.974,23.165,95.221,62.912c0,0,5.129-2.053,8.733-1.619
		c4.646,0.56,6.231,2.196,6.231,2.196l-2.479-65.965L1642.072,1033.626z"/>
	<path style="fill:#EAB7C2;" d="M1560.098,1317.853c0,0-22.368,59.554-19.413,73.635h62.482l4.449-66.536L1560.098,1317.853z"/>
	<polygon style="fill:#EAB7C2;" points="1794.22,1342.806 1814.761,1391.487 1879.585,1346.876 1840.86,1287.873 	"/>
	<path style="fill:#E2474B;" d="M1784.511,1032.81v15.61H1623.4v-15.61c0-29.667,16.19-55.58,40.25-69.448
		c11.851-6.829,25.62-10.742,40.301-10.742c15.939,0,30.789,4.6,43.289,12.554c4.95,3.146,9.541,6.81,13.671,10.931
		C1775.49,990.619,1784.511,1010.669,1784.511,1032.81z"/>
	<path style="fill:#EAB7C2;" d="M1747.24,964.8c0,0-63.969,21.907-82.436,84.624c-1.848,6.277-27.49,6.401-29-2
		c-8-44.536,27.846-84.444,27.846-84.444c11.851-6.86,25.62-10.79,40.301-10.79C1719.891,952.19,1734.74,956.81,1747.24,964.8z"/>
	<path style="fill:#E2474B;" d="M1779.288,1058.591h-167.996c-3.938,0-7.132-3.192-7.132-7.132v-0.636
		c0-3.938,3.193-7.132,7.132-7.132h167.996c3.939,0,7.132,3.193,7.132,7.132v0.636
		C1786.42,1055.398,1783.228,1058.591,1779.288,1058.591z"/>
	<path style="fill:#0E2549;" d="M1638.915,1212.089c0,0-23.614,43.584-25.102,102.251h14.656c0,0,4.937-78.989,23.146-101.654
		L1638.915,1212.089z"/>
	<path style="fill:#0E2549;" d="M1762.969,1209.78c0,0-24.792,45.893-26.279,104.56h14.656c0,0,4.418-76.709,22.627-99.374
		L1762.969,1209.78z"/>
	<path style="fill:#F9E5EF;" d="M1675.8,1395.205L1675.8,1395.205c-23.669,0-42.856-19.188-42.856-42.855v-9.198
		c0-2.451,1.987-4.438,4.439-4.438h76.834c2.451,0,4.438,1.987,4.438,4.438v9.198
		C1718.655,1376.018,1699.469,1395.205,1675.8,1395.205z"/>
	<path style="fill:#1B2746;" d="M1675.8,1396.705c-24.458,0-44.356-19.898-44.356-44.356v-9.197c0-3.274,2.664-5.938,5.939-5.938
		h76.834c3.274,0,5.938,2.664,5.938,5.938v9.197C1720.155,1376.807,1700.258,1396.705,1675.8,1396.705z M1637.383,1340.213
		c-1.621,0-2.939,1.318-2.939,2.938v9.197c0,22.804,18.553,41.356,41.356,41.356s41.355-18.553,41.355-41.356v-9.197
		c0-1.62-1.318-2.938-2.938-2.938H1637.383z"/>
</g>
<g>
	<path style="fill:#0E2549;" d="M1506.04,1464.54l-0.26,24.81v0.011l-0.771,71.63l-0.16,15.09v0.01l-0.17,16.57l-0.399,37.29
		l-0.11,10.55l-0.25,22.85l-0.1,10.12v0.011l-0.141,12.909l-6.63-7.899c-1.239,0.72-2.54,1.38-3.92,1.99
		c-2.77,1.229-12.81-6.86-21.61-15.74c-47.88,1.5-91.869,0.37-133.05-1.92c-0.01,0-0.01,0-0.02,0c-44.23-2.45-85.23-6.23-124.34-9.5
		c-1.431-0.12-2.851-0.24-4.271-0.36l0.521-5.66l2.399-26.26v-0.01l7.38-80.88l2.431-26.66l0.439-0.08l1.92-0.33l86.771-14.98h0.01
		l25.89-4.47l0.99-0.17l2.83-0.49l73.22-12.649l31.721-5.48h0.01l5.95-1.02l32.439-5.61l1.771-0.3l3.26-0.561l12.88-2.229
		L1506.04,1464.54z"/>
	<path style="fill:#FFFFFF;" d="M1237.439,1352.24c0,0-0.079,0.97-0.22,2.8v0.01c-1.159,14.97-6.81,87.311-12.29,158.03
		c-0.66,8.34-1.3,16.66-1.939,24.859V1538c-0.061,0.72-0.11,1.439-0.18,2.15c-2.351,30.39-4.561,59-6.24,80.88v0.01
		c-0.84,10.89-1.54,20.12-2.07,27.06c-0.14,1.92-0.28,3.67-0.39,5.221c-1.431-0.12-2.851-0.24-4.271-0.36
		c-8.46-0.7-16.84-1.37-25.14-2.01l0.47-9.22l5.15-101.58l6.619-130.391v-0.01l0.631-12.41l2.17-42.67l20.82-1.34l2.619-0.17
		l0.221-0.01l0.63-0.051L1237.439,1352.24z"/>
	<path style="fill:#0E2549;" d="M1215.5,1654.942l-5.786-0.487c-8.415-0.697-16.871-1.373-25.129-2.01l-1.457-0.112l15.183-299.074
		l40.765-2.627l-0.141,1.73c0,0.002-0.077,0.949-0.215,2.735l-0.005,0.068c-0.382,4.94-1.254,16.133-2.448,31.454
		c-2.422,31.096-6.17,79.199-9.842,126.576c-0.441,5.58-0.874,11.148-1.303,16.679l-0.697,8.991
		c-0.037,0.479-0.075,0.956-0.121,1.43c-2.346,30.334-4.555,58.919-6.233,80.792l-0.005,0.067
		c-0.617,8.01-1.159,15.122-1.614,21.085l-0.647,8.531c-0.071,0.938-0.139,1.825-0.197,2.654L1215.5,1654.942z M1186.272,1649.567
		c7.8,0.604,15.763,1.241,23.691,1.897l2.762,0.233c0.027-0.376,0.057-0.761,0.087-1.154l0.647-8.532
		c0.454-5.949,0.994-13.042,1.61-21.029l0.005-0.067c1.68-21.88,3.89-50.49,6.24-80.88c0.047-0.485,0.083-0.944,0.119-1.404
		l0.696-8.988c0.43-5.531,0.862-11.102,1.304-16.681c3.671-47.375,7.419-95.479,9.842-126.574c1.189-15.266,2.059-26.432,2.443-31.4
		l0.005-0.063c0.03-0.4,0.059-0.76,0.083-1.077l-34.637,2.233L1186.272,1649.567z"/>
	<path style="fill:#FFFFFF;" d="M1337.903,1030.952c0,0,6.956,73.054,1.111,81.133s-39.578,22.966-39.578,22.966l56.558,166.291
		l120.776-11.674l7.831-123.637c0,0-55.129-44.908-58.454-54.131c-4.602-12.763-4.614-80.948-4.614-80.948H1337.903z"/>
	<path style="fill:#0E2549;" d="M1354.956,1302.95l-0.382-1.124l-57-167.593l1.257-0.555c0.333-0.147,33.427-14.813,38.969-22.473
		c4.045-5.592,1.385-50.973-1.39-80.111c-0.079-0.825,0.526-1.558,1.351-1.636c0.831-0.082,1.557,0.525,1.636,1.351
		c0.718,7.535,6.837,73.856,0.833,82.154c-5.425,7.5-32.64,20.063-38.933,22.898l55.735,163.873l118.322-11.438l7.701-121.592
		c-7.912-6.461-55.046-45.222-58.319-54.297c-4.637-12.861-4.702-78.662-4.703-81.457c0-0.828,0.671-1.5,1.5-1.5
		c0.828,0,1.5,0.671,1.5,1.5c0,0.679,0.064,68.067,4.525,80.439c2.612,7.244,42.746,41.059,57.99,53.477l0.599,0.487l-7.961,125.683
		L1354.956,1302.95z"/>
	<path style="fill:#FFFFFF;" d="M1281.029,1128.53c-36.506,13.321-27.687,208.277-27.687,208.277
		c-5.955,22.928-19.992,145.673-19.992,145.673l255.855,50.997l30.17-153.204c0,0,18.888-257.934-81.358-273.041
		c-9.62-1.449-39.014,12.292-70.431,9.258c-13.626-1.316-20.571,14.943-27.345-8.921
		C1340.242,1107.569,1288.973,1125.632,1281.029,1128.53z"/>
	<path style="fill:#0E2549;" d="M1490.279,1535.081l-1.34-0.268l-257.085-51.243l0.143-1.246
		c0.572-5.001,14.038-122.422,19.976-145.659c-0.469-10.543-8.159-196.005,28.59-209.415c7.859-2.867,58.714-20.785,59.227-20.966
		l1.368-0.481l0.396,1.395c1.922,6.77,3.968,10.604,6.257,11.726c1.998,0.977,4.447-0.009,7.548-1.259
		c3.32-1.339,7.457-3.007,12.36-2.53c19.465,1.88,38.191-2.768,51.867-6.162c8.578-2.129,14.77-3.67,18.636-3.087
		c23.345,3.519,42.197,20.275,56.034,49.806c10.968,23.406,18.837,54.888,23.388,93.568c7.734,65.74,3.14,130.468,3.092,131.114
		l-0.021,0.164L1490.279,1535.081z M1234.848,1481.389l253.285,50.485l29.89-151.781c0.188-2.657,4.493-66.127-3.09-130.55
		c-4.519-38.382-12.308-69.574-23.151-92.71c-13.426-28.646-31.583-44.88-53.967-48.253c-3.324-0.505-9.612,1.061-17.572,3.036
		c-13.867,3.441-32.862,8.155-52.786,6.23c-4.251-0.405-7.876,1.054-11.079,2.345c-3.434,1.384-6.676,2.692-9.767,1.179
		c-2.915-1.429-5.181-5.165-7.271-12.038c-8.176,2.881-50.722,17.88-57.844,20.479l-0.467-1.28l0.467,1.28
		c-14.368,5.243-23.579,42.555-26.638,107.9c-2.33,49.767-0.177,98.548-0.154,99.035l0.009,0.205l-0.052,0.199
		C1249.119,1358.489,1236.347,1468.396,1234.848,1481.389z"/>
	<path style="fill:#0E2549;" d="M1340.465,1362.179l-24.295-250.331c-16.733,0-82.819,32.398-98.456,46.231
		c-5.729,5.069-65.287,470.3-64.794,475.914c0,0,58.77,14.543,67.678,14.999c4.384,0.225,0.736-250.381,3.941-308.693
		l-13.093,146.99l-11.706,133.741l131.593,0.102l5.992-115.049L1340.465,1362.179z"/>
	<path style="fill:#0E2549;" d="M1431.769,1102.387l-91.529,252.037c-0.245,15.645,1.065,22.57-1.579,89.167
		c-1.401,35.321,2.879,186.716,2.88,181.321c0-2.187,177.209,5.667,177.209,5.667l7.536-185.272c0,0,59.309-30.378,59.309-116.396
		c0-96.385-7.109-129.131-24.432-177.492C1558.661,1144.436,1465.845,1102.387,1431.769,1102.387z"/>
	<path style="fill:#0E2549;" d="M1379.508,889.637c-15.204-0.328-52.128-1.597-55.57,25.236c-3.927,30.606-3.809,70.62-3.391,91.736
		c0.165,8.334,6.397,15.277,14.647,16.336l92.411,11.856c8.466,1.086,16.399-4.359,18.444-12.666
		c6.881-27.955,20.923-87.216,18.721-96.705C1457.277,893.143,1403.58,890.155,1379.508,889.637z"/>
	<path style="fill:#FFFFFF;" d="M1417.886,1053.876c5.654-4.545,10.287-24.797,13.856-48.122c0.104-0.675,0.545-1.239,1.153-1.503
		c6.53-2.835,16.302-9.443,17.538-21.082c1.069-10.084-6.469-8.908-12.594-6.404c-1.094,0.447-2.234-0.47-2.1-1.678
		c3.17-28.272,4.791-53.208,4.791-53.208l-109.811-14.088c0,0-3.013,25.188-5.579,53.537c-0.115,1.272-4.139,69.163-2.282,75.591
		c1.012,3.502,3.41,6.61,6.819,9.326c0,0,6.308,6.666,46.218,11.787L1417.886,1053.876z"/>
	<path style="fill:#0E2549;" d="M1375.898,1059.532c-0.063,0-0.128-0.004-0.193-0.013c-37.75-4.844-45.975-11.199-47.004-12.136
		c-3.779-3.021-6.229-6.401-7.283-10.049c-1.999-6.925,2.172-75.504,2.229-76.143c2.539-28.046,5.554-53.328,5.584-53.58l0.18-1.502
		l112.709,14.46l-0.091,1.406c-0.017,0.25-1.661,25.294-4.799,53.277c-0.011,0.104,0.045,0.128,0.046,0.128
		c5.522-2.265,9.605-2.448,12.132-0.55c2.101,1.578,2.947,4.436,2.516,8.495c-1.436,13.526-13.367,20.101-18.431,22.3
		c-0.142,0.061-0.244,0.197-0.269,0.354c-4.401,28.765-9.111,44.814-14.399,49.064c-0.644,0.518-1.591,0.417-2.108-0.229
		c-0.52-0.646-0.416-1.59,0.229-2.108c3.17-2.548,8.053-12.802,13.313-47.18c0.182-1.186,0.944-2.178,2.039-2.652
		c4.58-1.989,15.373-7.908,16.643-19.865c0.312-2.936-0.138-4.881-1.335-5.78c-1.578-1.186-4.844-0.858-9.199,0.923
		c-0.988,0.404-2.092,0.263-2.946-0.383c-0.884-0.667-1.336-1.732-1.212-2.85c2.707-24.138,4.299-46.077,4.691-51.733
		l-106.907-13.716c-0.684,5.841-3.216,27.893-5.397,51.992c-0.248,2.817-4.064,69.051-2.335,75.04
		c0.881,3.051,3.005,5.935,6.313,8.569l0.155,0.142c0.04,0.038,7.066,6.422,45.318,11.33c0.822,0.105,1.402,0.857,1.298,1.679
		C1377.287,1058.979,1376.642,1059.532,1375.898,1059.532z"/>
	<path style="fill:#0E2549;" d="M1391.933,980.329c-0.065,0-0.131-0.002-0.197-0.007c-1.376-0.107-2.405-1.31-2.298-2.687
		l0.178-2.282c0.106-1.376,1.31-2.402,2.687-2.298c1.376,0.107,2.405,1.31,2.298,2.687l-0.178,2.282
		C1394.32,979.333,1393.225,980.329,1391.933,980.329z"/>
	<path style="fill:#0E2549;" d="M1343.69,975.637c-0.098,0-0.197-0.006-0.297-0.018c-1.371-0.162-2.352-1.405-2.188-2.776
		l0.317-2.679c0.162-1.371,1.399-2.359,2.776-2.188c1.371,0.162,2.352,1.405,2.188,2.776l-0.317,2.679
		C1346.02,974.702,1344.939,975.637,1343.69,975.637z"/>
	<path style="fill:#0E2549;" d="M1405.514,963.732c-0.247,0-0.497-0.061-0.729-0.189c-8.651-4.813-17.797-2.069-17.889-2.04
		c-0.792,0.246-1.631-0.198-1.876-0.99s0.197-1.631,0.989-1.877c0.423-0.13,10.475-3.144,20.234,2.285
		c0.724,0.403,0.984,1.316,0.581,2.04C1406.551,963.454,1406.04,963.731,1405.514,963.732z"/>
	<path style="fill:#0E2549;" d="M1358.146,1005.673c-0.166,0-0.334-0.027-0.499-0.085c-1.531-0.541-9.182-3.461-9.428-7.922
		c-0.188-3.442,0.288-4.316,6.124-15.018c1.274-2.337,2.813-5.159,4.67-8.6c0.277-0.641,3.102-7.296,2.795-11.544
		c-0.035-0.485-0.66-1.358-2.312-2.358c-4.875-2.952-16.003-5.187-23.055-2.122c-0.758,0.333-1.643-0.018-1.974-0.777
		c-0.33-0.76,0.019-1.644,0.778-1.974c7.54-3.28,19.653-1.417,25.804,2.307c2.366,1.433,3.628,3.017,3.75,4.708
		c0.375,5.192-2.926,12.707-3.066,13.024l-0.051,0.104c-1.873,3.471-3.424,6.314-4.706,8.667c-5.738,10.524-5.9,10.9-5.762,13.417
		c0.101,1.828,4.493,4.218,7.431,5.258c0.78,0.276,1.189,1.133,0.914,1.914C1359.343,1005.288,1358.765,1005.673,1358.146,1005.673z
		"/>
	<path style="fill:#0E2549;" d="M1471.74,1579.743c-0.316,0-0.635-0.1-0.906-0.306l-70.632-53.652
		c-0.66-0.501-0.788-1.442-0.287-2.102s1.44-0.788,2.102-0.287l70.632,53.652c0.66,0.501,0.788,1.442,0.287,2.102
		C1472.641,1579.539,1472.193,1579.743,1471.74,1579.743z"/>
	<path style="fill:#0E2549;" d="M1223.108,1567.127c-0.547,0-1.074-0.3-1.339-0.821c-0.375-0.738-0.08-1.642,0.659-2.017
		l75.991-38.573c0.739-0.374,1.642-0.08,2.017,0.659c0.375,0.738,0.08,1.642-0.659,2.017l-75.991,38.573
		C1223.568,1567.075,1223.337,1567.127,1223.108,1567.127z"/>
	<path style="fill:#FFFFFF;" d="M1318.219,1104.417l-51.033,56.378l41.362,16.62l-23.78,62.413l54.672,114.816
		c0.203,0.426,0.845,0.248,0.8-0.221L1318.219,1104.417z"/>
	<path style="fill:#0E2549;" d="M1339.818,1356.386c-0.726,0-1.407-0.413-1.732-1.096l-54.948-115.396l23.484-61.636l-41.993-16.874
		l54.783-60.52l22.321,253.428c0.088,0.918-0.5,1.773-1.4,2.023C1340.162,1356.362,1339.988,1356.386,1339.818,1356.386z
		 M1338.745,1354.552c0,0.005,0,0.01,0.001,0.016L1338.745,1354.552z M1286.397,1239.763l51.822,108.832l-21.194-240.625
		l-47.283,52.236l40.731,16.366L1286.397,1239.763z"/>
	<path style="fill:#FFFFFF;" d="M1431.769,1102.387l49.32,74.771l-55.64,4.84l12.494,66.196l-94.41,105.185
		c-0.629,0.701-1.761,0.009-1.424-0.87L1431.769,1102.387z"/>
	<path style="fill:#0E2549;" d="M1342.911,1355.169c-0.42,0-0.846-0.115-1.234-0.353c-0.981-0.601-1.38-1.77-0.968-2.845
		l90.66-252.915l52.358,79.378l-56.497,4.914l12.324,65.296l-94.905,105.736C1344.185,1354.898,1343.555,1355.169,1342.911,1355.169
		z M1343.527,1352.998l-0.006,0.017C1343.523,1353.01,1343.525,1353.004,1343.527,1352.998z M1432.168,1105.717l-87.531,244.188
		l91.695-102.16l-12.664-67.097l54.782-4.766L1432.168,1105.717z"/>
	<path style="fill:#FFFFFF;" d="M1354.659,1457.204c0,3.46,2.805,6.265,6.265,6.265s6.266-2.805,6.266-6.265
		s-2.806-6.265-6.266-6.265S1354.659,1453.744,1354.659,1457.204z"/>
	<path style="fill:#0E2549;" d="M1360.924,1464.969c-4.281,0-7.765-3.483-7.765-7.765s3.483-7.765,7.765-7.765
		c4.282,0,7.766,3.483,7.766,7.765S1365.206,1464.969,1360.924,1464.969z M1360.924,1452.439c-2.627,0-4.765,2.138-4.765,4.765
		s2.138,4.765,4.765,4.765c2.628,0,4.766-2.138,4.766-4.765S1363.552,1452.439,1360.924,1452.439z"/>
	<path style="fill:#A1C5E2;" d="M1460.567,1629.624c-0.026,0-0.053-0.001-0.08-0.002l-122.727-6.494l-1.152-268.022
		c-0.004-0.829,0.665-1.503,1.493-1.507c0.003,0,0.005,0,0.007,0c0.825,0,1.496,0.667,1.5,1.493l1.141,265.19l119.896,6.344
		c0.827,0.044,1.463,0.75,1.419,1.577C1462.022,1629.004,1461.359,1629.624,1460.567,1629.624z"/>
	<path style="fill:#A1C5E2;" d="M1322.466,1622.53h-124.361l29.134-332.861c0.072-0.825,0.792-1.441,1.625-1.363
		c0.825,0.072,1.436,0.8,1.363,1.625l-28.849,329.6h121.088c0.828,0,1.5,0.672,1.5,1.5S1323.294,1622.53,1322.466,1622.53z"/>
	<polygon style="fill:#FFFFFF;" points="1458.568,1114.673 1428.915,1091.56 1367.587,1116.49 1387.253,1139.957 	"/>
	<polygon style="fill:#FFFFFF;" points="1299.856,1117.31 1320.542,1095.393 1367.587,1116.49 1349.852,1138.128 	"/>
	<path style="fill:#0E2549;" d="M1461.812,1115.198l-32.646-25.445l-61.549,25.021l-47.453-21.281l-23.025,24.396l53.188,22.148
		l17.272-21.072l19.147,22.848L1461.812,1115.198z M1349.374,1136.219l-46.8-19.488l18.346-19.438l44.137,19.793L1349.374,1136.219z
		 M1428.664,1093.366l26.661,20.781l-67.566,23.954l-17.569-20.965L1428.664,1093.366z"/>
	<polygon style="fill:#0E2549;" points="1387.253,1139.957 1367.587,1116.49 1348.035,1139.957 1356.582,1150.029 
		1333.722,1275.152 1340.548,1359.103 1373.802,1264.096 1372.985,1151.951 	"/>
	<path style="fill:#FFFFFF;" d="M1574.38,1721.91c-1.319,0.93-2.59,1.77-3.83,2.54c-21.95,13.68-31.54,4.06-31.54,4.06l-35.33-42.12
		l-6.63-7.899l-11.95-14.24l-2.72-3.25l-12.09-14.41l-0.01-0.01l-15.681-18.69l-3.89-4.649l-69.71-83.09l-28.439-33.91
		l-11.141-13.271l-2.88-3.439l-0.83-0.99l-65.18-77.7c0,0-11.33-15.27,17.439-34.71c0,0,0.101-0.06,0.28-0.18
		c0.04-0.03,0.09-0.061,0.13-0.09l-8.41-12.341c0,0,28.47-18.68,51.061-22.33h0.01c1.82-0.3,3.6-0.5,5.33-0.569
		c0.22-0.021,0.44-0.03,0.649-0.03c0.62-0.029,1.221-0.029,1.801-0.01c1.49,0.03,2.93,0.16,4.3,0.4c0.36,0.06,0.7,0.13,1.05,0.209
		c2.23,0.49,4.27,1.301,6.07,2.49c0.26,0.17,0.51,0.351,0.76,0.54c2.91,2.19,13.48,16.25,28.64,37.49l0.011,0.021
		c17.189,24.1,40.27,57.42,64.71,93.109h0.01c1.97,2.891,3.96,5.79,5.95,8.7c8.39,12.26,16.89,24.72,25.33,37.13
		c1.149,1.71,2.31,3.41,3.46,5.1c1.6,2.36,3.2,4.711,4.79,7.051c1.979,2.91,3.949,5.81,5.91,8.699c3.1,4.561,6.17,9.091,9.199,13.58
		l0.01,0.011c1.33,1.97,2.67,3.93,3.99,5.88c5.34,7.89,10.57,15.62,15.63,23.109c0.16,0.23,0.311,0.461,0.46,0.681
		c1.801,2.659,3.57,5.29,5.32,7.88c16.08,23.8,30.21,44.8,40.641,60.31v0.011c1.18,1.77,2.319,3.459,3.409,5.08
		c0.95,1.42,1.87,2.779,2.74,4.079c2.83,4.21,5.229,7.79,7.14,10.641c3.381,5.05,5.24,7.819,5.24,7.819
		S1597.22,1705.86,1574.38,1721.91z"/>
	<path style="fill:#0E2549;" d="M1586.952,1679.973l-0.117-0.209c0,0-1.859-2.77-5.239-7.818c-1.91-2.852-4.311-6.432-7.14-10.64
		l-3.455-5.143c-0.79-1.175-1.605-2.386-2.44-3.637l-0.255-0.394c-11.404-16.958-25.151-37.385-40.643-60.313l-2.115-3.133
		c-1.059-1.571-2.127-3.154-3.208-4.751l-0.457-0.677c-5.06-7.489-10.291-15.221-15.631-23.11l-1.754-2.583
		c-0.744-1.096-1.491-2.193-2.235-3.296l-0.068-0.098c-3.012-4.462-6.063-8.965-9.143-13.496c-1.961-2.89-3.932-5.789-5.911-8.699
		l-5.217-7.679c-1.009-1.48-2.022-2.97-3.033-4.473c-8.441-12.411-16.942-24.872-25.332-37.133l-2.011-2.937
		c-1.317-1.925-2.632-3.846-3.938-5.762l-0.456-0.655h-0.002c-26.937-39.329-48.542-70.414-64.22-92.396l-0.071-0.104
		c-16.624-23.293-26.097-35.664-28.954-37.814c-0.278-0.211-0.557-0.411-0.839-0.597c-1.896-1.251-4.107-2.161-6.566-2.701
		c-0.378-0.086-0.746-0.161-1.122-0.224c-1.415-0.248-2.938-0.391-4.508-0.422c-0.669-0.022-1.298-0.019-1.852,0.009
		c-0.254,0-0.521,0.012-0.709,0.031c-1.693,0.068-3.458,0.254-5.393,0.568l-0.127,0.02c-22.646,3.659-50.471,21.786-51.645,22.557
		l-1.276,0.837l8.422,12.357c-11.326,7.828-17.777,15.965-19.183,24.196c-1.142,6.689,1.539,11.082,2.152,11.979
		c0.021,0.033,266.686,317.934,266.686,317.934c0.25,0.251,3.883,3.75,11.422,3.75c5.319,0,12.583-1.742,21.973-7.594
		c1.307-0.813,2.583-1.658,3.902-2.588l-0.002,0.001C1598.832,1706.561,1587.074,1680.236,1586.952,1679.973z M1272.084,1400.063
		c1.301-7.361,7.637-15.102,18.246-22.36c0.184-0.042,1.212-0.884,1.378-0.994c8.887-5.858,32.832-19.213,40.721-14.269
		c1.167,0.73,1.522,1.612,1.187,2.948c-2.026,8.072-25.038,22.454-34.626,23.104c-0.892,0.061-1.565,0.833-1.506,1.725
		c0.059,0.854,0.77,1.509,1.613,1.509c0.037,0,0.074-0.001,0.111-0.003c10.907-0.739,35.185-16.134,37.547-25.546
		c0.679-2.7-0.248-5.002-2.607-6.48c-10.032-6.278-36.053,9.334-43.417,14.015l-6.649-9.756c5.771-3.62,29.768-18.103,49.07-21.265
		c0,0,7.313-1.522,12.696-0.035c2.08,0.575,3.979,1.229,5.571,2.28c0.164,0.107,0.322,0.226,0.481,0.343
		c1.175,1.76,4.412,7.616,2.611,16.476c-1.87,9.205-9.779,23.813-36.839,41.119c-25.39,16.24-41.935,8.054-44.084,6.853
		C1273.024,1408.823,1271.152,1405.34,1272.084,1400.063z M1573.518,1720.683l-0.002,0.001c-1.271,0.896-2.5,1.712-3.759,2.493
		c-20.078,12.513-28.945,4.961-29.65,4.307l-262.485-312.904c2.591,0.746,5.981,1.372,10.117,1.371
		c7.977,0,18.683-2.32,31.552-10.551c22.434-14.349,35.273-28.833,38.162-43.05c0.851-4.186,0.707-7.769,0.138-10.703
		c4.216,5.307,11.223,14.674,22.769,30.851l0.071,0.104c15.758,22.094,37.524,53.412,64.693,93.086l0.378,0.54
		c1.186,1.738,2.377,3.479,3.572,5.224l2.009,2.936c8.39,12.259,16.889,24.718,25.323,37.12c1.01,1.501,2.027,2.995,3.039,4.481
		l5.216,7.676c1.979,2.909,3.948,5.809,5.91,8.698c3.099,4.56,6.168,9.089,9.196,13.576l0.07,0.101
		c0.726,1.074,1.454,2.146,2.181,3.215l1.75,2.577c5.34,7.89,10.569,15.619,15.641,23.125l0.449,0.665
		c1.078,1.593,2.146,3.175,3.204,4.743l2.115,3.136c15.374,22.755,29.03,43.046,40.384,59.927l0.252,0.386
		c0.926,1.389,1.827,2.729,2.699,4.025l3.453,5.139c2.83,4.209,5.229,7.789,7.139,10.639c2.992,4.469,4.792,7.152,5.168,7.711
		C1585.008,1683.036,1594.378,1706.024,1573.518,1720.683z"/>
	<path style="fill:#FFFFFF;" d="M1514.714,1630.579l-37.868,35.622l-97.829-292.313c0,0-3.871-14.922,23.806-20.669l-2.545-11.708
		c0,0,48.644-9.694,58.665,7.006C1466.674,1361.4,1514.714,1630.579,1514.714,1630.579z"/>
	<path style="fill:#0E2549;" d="M1516.19,1630.315c-1.964-11.002-48.178-269.6-55.962-282.57c-0.011-0.018-0.022-0.034-0.033-0.052
		c-0.008-0.012-0.016-0.024-0.023-0.036c-10.555-17.283-58.162-8.021-60.188-7.617l-1.497,0.298l2.552,11.734
		c-10.678,2.437-17.883,6.558-21.428,12.262c-3.225,5.188-2.097,9.739-2.047,9.931l98.603,294.635l40.166-37.784L1516.19,1630.315z
		 M1380.421,1373.26c-0.146-0.884-0.423-3.922,1.791-7.427c3.229-5.111,10.439-8.96,20.853-11.132
		c11.604-2.299,31.06-3.96,34.831,1.245c0.568,0.784,0.567,1.395-0.003,2.177c-3.884,5.326-25.106,9.04-32.362,6.662
		c-0.852-0.277-1.764,0.186-2.042,1.034c-0.278,0.85,0.185,1.764,1.034,2.042c1.768,0.578,4.298,0.854,7.218,0.854
		c10.09,0,24.83-3.285,28.768-8.685c1.405-1.927,1.408-4.052,0.009-5.982c-5.614-7.751-29.354-4.119-36.589-2.805l-1.855-8.536
		c8.139-1.426,46.818-7.381,55.461,6.405c0.342,1.717,0.896,6.875-2.983,12.737c-4.129,6.242-14.35,14.674-39.595,19.395
		C1391.337,1385.662,1381.826,1375.038,1380.421,1373.26z M1477.524,1663.503l-95.198-284.451
		c4.054,2.925,11.031,6.257,21.807,6.257c3.403,0,7.186-0.332,11.373-1.115c21.098-3.945,35.075-10.906,41.546-20.688
		c1.588-2.4,2.53-4.695,3.075-6.772c9.747,36.286,37.941,189.151,52.968,273.311L1477.524,1663.503z"/>
	<path style="fill:#FFFFFF;" d="M1559.64,1475.311c-11.609,39.81-29.81,85.81-38.54,109.47c-0.18,0.52-0.369,1.03-0.55,1.52
		c-0.87,2.39-1.64,4.521-2.27,6.36c-0.79,2.26-1.38,4.09-1.74,5.43c-0.69,2.561,2.271,16.5,2.08,32.48
		c-0.13,10.8-1.71,22.54-6.84,32.319c-2.04,3.9-4.65,7.49-7.96,10.58v0.011c-1.99,1.859-4.24,3.539-6.771,5.01
		c-1.239,0.72-2.54,1.38-3.92,1.99c-2.77,1.229-12.81-6.86-21.61-15.74c-7.119-7.18-13.439-14.88-14.449-18.57
		c-0.96-3.47,3.21-8.22,3.21-8.22c-1.101,0.05-22.47-0.66-20.3-4.9c0.789-1.54,2.67-3.43,5.199-5.53
		c1.62-1.359,3.5-2.789,5.53-4.279c2.979-2.19,6.28-4.49,9.5-6.771c6.76-4.78,13.19-9.489,15.75-12.989
		c1.271-1.74,2.64-5.36,4.19-10.82c2.979-10.45,6.66-27.62,11.66-51.141c1.029-4.84,2.119-9.949,3.27-15.33
		c0.1-0.479,0.21-0.97,0.32-1.449c2.609-11.891,6.189-23.851,10.38-35.38v-0.011c14.409-39.76,36-74.38,50.17-83.17
		c3.96-2.46,7.34-2.899,9.819-0.859c1.881,1.54,3.24,4.5,3.94,9.08C1571.71,1427.39,1567,1450.11,1559.64,1475.311z"/>
	<path style="fill:#0E2549;" d="M1492.608,1682.493c-5.356,0.001-16.159-10.043-22.457-16.397
		c-3.118-3.145-13.413-13.841-14.938-19.417c-0.654-2.365,0.33-4.953,1.443-6.91c-5.698-0.27-16.166-1.212-18.255-4.46
		c-0.616-0.958-0.665-2.101-0.136-3.137c0.861-1.68,2.667-3.629,5.684-6.134c1.454-1.221,3.242-2.604,5.621-4.351
		c2.27-1.669,4.763-3.427,7.174-5.128l2.353-1.662c6.422-4.541,12.893-9.25,15.309-12.554c1.077-1.477,2.388-4.912,3.893-10.21
		c2.875-10.084,6.311-26,11.629-51.015c1.029-4.841,2.119-9.951,3.27-15.332c0.101-0.482,0.214-0.986,0.327-1.479
		c2.499-11.391,5.978-23.271,10.335-35.3l0.111-0.315c14.001-38.636,35.912-74.813,50.965-84.15
		c6.085-3.781,9.916-2.473,12.059-0.71c2.345,1.92,3.857,5.282,4.621,10.276c1.836,11.929-1.476,32.125-10.126,61.741v-0.001
		c-9.357,32.09-22.729,67.505-32.492,93.364c-2.313,6.124-4.382,11.606-6.09,16.233c-0.159,0.463-0.341,0.955-0.517,1.43
		c-0.896,2.458-1.661,4.577-2.287,6.407c-0.794,2.27-1.365,4.051-1.702,5.306c-0.182,0.775,0.208,4.246,0.585,7.603
		c0.707,6.284,1.674,14.891,1.561,24.401c-0.161,13.4-2.536,24.567-7.06,33.19c-2.097,4.008-4.698,7.54-7.74,10.51v0.013
		l-0.611,0.581c-2.125,1.985-4.52,3.758-7.117,5.268c-1.29,0.749-2.672,1.451-4.108,2.087
		C1493.524,1682.413,1493.088,1682.493,1492.608,1682.493z M1464.632,1635.89l-2.904,3.331c-1.134,1.3-3.313,4.585-2.801,6.436
		c0.825,3.016,6.435,10.139,13.961,17.728c10.43,10.524,17.729,15.298,19.518,15.298c0.011,0,0.021,0,0.031-0.001
		c1.295-0.576,2.487-1.184,3.646-1.856c2.204-1.28,4.244-2.768,6.069-4.425l0.354-0.338c2.987-2.788,5.533-6.175,7.567-10.064
		c4.24-8.082,6.467-18.663,6.621-31.45c0.11-9.271-0.842-17.74-1.537-23.925c-0.594-5.287-0.842-7.682-0.477-9.033
		c0.366-1.364,0.949-3.185,1.781-5.564c0.63-1.838,1.403-3.98,2.278-6.384l0.036-0.099c0.166-0.449,0.339-0.917,0.503-1.392
		c1.724-4.672,3.797-10.163,6.112-16.297c9.741-25.801,23.083-61.136,32.399-93.082v-0.001c8.371-28.66,11.74-48.873,10.016-60.077
		c-0.597-3.901-1.723-6.626-3.258-7.883c-1.701-1.402-4.253-1.063-7.582,1.005c-14.366,8.912-35.515,44.075-49.261,81.873
		l-0.115,0.33c-4.352,11.973-7.82,23.794-10.309,35.135c-0.112,0.485-0.22,0.962-0.316,1.428c-1.152,5.392-2.242,10.5-3.271,15.339
		c-5.334,25.095-8.783,41.068-11.691,51.269c-1.675,5.897-3.102,9.529-4.487,11.428c-2.762,3.777-9.236,8.506-16.193,13.426
		l-2.358,1.666c-2.396,1.689-4.873,3.438-7.113,5.084c-2.311,1.696-4.036,3.031-5.433,4.203c-2.228,1.85-3.722,3.353-4.459,4.481
		c2.646,1.689,15.226,2.655,18.241,2.549L1464.632,1635.89z M1492.485,1678.678L1492.485,1678.678L1492.485,1678.678z"/>
	<path style="fill:#0E2549;" d="M1530.448,1592.656c0,0,39.764-43.056,50.172-129.188c10.407-86.131,4.775-160.519,4.775-160.519
		l-84.5,7.182c0,0-6.465,118.158-9.805,145.283c-4.646,37.742-24.899,137.241-24.899,137.241H1530.448z"/>
	<path style="fill:#A1C5E2;" d="M1530.448,1594.156h-66.206l0.499-1.884c43.066-162.518,26.062-294.822,25.885-296.14
		c-0.11-0.82,0.466-1.575,1.287-1.686c0.813-0.122,1.576,0.465,1.686,1.287c0.045,0.331,4.437,33.728,3.422,86.817
		c-0.929,48.616-6.707,124.131-28.882,208.604h62.31c0.828,0,1.5,0.672,1.5,1.5S1531.276,1594.156,1530.448,1594.156z"/>
	<path style="fill:#0E2549;" d="M1321.054,987.664c0,0-11.215,46.41,2.066,58.386c13.282,11.977,69.751,18.526,79.892,14.019
		c10.141-4.507,28.006-56.956,28.006-56.956s-22.538,8.523-35.034,8.44c-12.495-0.082-43.494,0.369-57.604-8.373
		C1328.573,997.106,1321.054,987.664,1321.054,987.664z"/>
	<path style="fill:#FFFFFF;" d="M1373.229,1017.021c0.739,3.364-9.186,13.506-17.713,11.979
		c-13.915-2.493-15.05-17.362-11.864-15.965c1.249,0.548,5.397,5.442,13.785,6.692
		C1366.485,1021.073,1372.733,1014.764,1373.229,1017.021z"/>
	<path style="fill:#E2474B;" d="M1476.029,921.138l-1.578,15.53l-160.284-16.284l1.577-15.53
		c2.999-29.515,21.725-53.66,47.063-65.024c12.479-5.597,26.574-8.098,41.179-6.614c15.859,1.611,30.168,7.688,41.8,16.865
		c4.606,3.63,8.803,7.739,12.495,12.257C1471.319,878.252,1478.268,899.111,1476.029,921.138z"/>
	<path style="fill:#EAB7C2;" d="M1445.824,849.709c0,0-65.855,15.33-90.567,75.859c-2.473,6.059-27.997,3.59-28.649-4.921
		c-3.457-45.117,36.238-81.197,36.238-81.197c12.483-5.627,26.58-8.146,41.185-6.662
		C1419.889,834.4,1434.195,840.497,1445.824,849.709z"/>
	<path style="fill:#E2474B;" d="M1468.228,946.259l-167.136-16.979c-3.919-0.398-6.773-3.898-6.375-7.816l0.064-0.632
		c0.398-3.919,3.897-6.773,7.816-6.375l167.136,16.98c3.919,0.398,6.773,3.897,6.375,7.816l-0.064,0.633
		C1475.646,943.804,1472.146,946.658,1468.228,946.259z"/>
	<path style="fill:#A1C5E2;" d="M1225.752,1503.957c-0.776,0-1.434-0.599-1.494-1.386c-0.063-0.826,0.556-1.547,1.382-1.61
		l77.96-5.952c0.812-0.052,1.547,0.556,1.61,1.382c0.063,0.826-0.556,1.547-1.382,1.61l-77.96,5.952
		C1225.829,1503.956,1225.791,1503.957,1225.752,1503.957z"/>
</g>
<g>
	<path style="fill:#FFFFFF;" d="M473.694,1062.651c0,0-6.831,71.737-1.092,79.671c5.74,7.934,48.471,18.156,48.471,18.156
		l-65.144,167.692l-118.601-11.464l-7.69-121.409c0,0,54.135-44.1,57.401-53.157c4.518-12.532,4.531-79.489,4.531-79.489H473.694z"
		/>
	<path style="fill:#0E2549;" d="M456.917,1329.775l-121.007-11.696l-7.819-123.458l0.599-0.487
		c14.968-12.193,54.374-45.395,56.937-52.503c4.378-12.144,4.442-78.313,4.442-78.979c0-0.83,0.673-1.502,1.502-1.502h0
		c0.829,0,1.501,0.673,1.501,1.502c0,2.745-0.065,67.365-4.621,79.999c-3.214,8.915-49.46,46.949-57.266,53.323l7.56,119.361
		l116.196,11.231l64.111-165.035c-8.735-2.154-42.239-10.825-47.667-18.329c-5.901-8.156,0.109-73.293,0.814-80.693
		c0.079-0.826,0.809-1.437,1.638-1.353c0.826,0.079,1.431,0.812,1.353,1.638c-2.724,28.609-5.337,73.164-1.37,78.648
		c4.44,6.138,35.869,14.768,47.604,17.574l1.673,0.4L456.917,1329.775z"/>
	<path style="fill:#0E2549;" d="M452.282,920.786c14.83,1.761,50.909,5.576,50.587,32.14c-0.368,30.299-5.954,69.193-9.249,89.67
		c-1.3,8.082-8.31,13.981-16.478,13.883l-91.483-1.108c-8.381-0.102-15.351-6.482-16.204-14.839
		c-2.869-28.125-8.419-87.672-4.98-96.598C376.178,913.56,428.803,917.998,452.282,920.786z"/>
	<path style="fill:#FFFFFF;" d="M392.502,1075.248c-4.877-5.193-6.611-25.521-6.893-48.69c-0.008-0.67-0.36-1.279-0.916-1.619
		c-5.962-3.65-14.561-11.412-14.17-22.899c0.338-9.952,7.508-7.777,13.122-4.505c1.001,0.584,2.237-0.151,2.271-1.345
		c0.785-27.926,2.617-52.395,2.617-52.395l108.709,1.317c0,0-0.515,24.905-1.896,52.823c-0.062,1.253-5.434,67.821-8.119,73.819
		c-1.462,3.267-4.22,5.961-7.907,8.135c0,0-7.045,5.621-46.555,5.142L392.502,1075.248z"/>
	<path style="fill:#0E2549;" d="M437.514,1086.567c-1.535,0-3.123-0.009-4.767-0.029c-0.833-0.01-1.5-0.693-1.49-1.526
		c0.01-0.826,0.683-1.489,1.507-1.489c0.006,0,0.013,0,0.019,0c37.839,0.441,45.553-4.782,45.626-4.835l0.145-0.097
		c3.571-2.106,6.026-4.614,7.296-7.454c2.489-5.562,7.844-70.502,7.989-73.277c1.172-23.682,1.725-45.432,1.86-51.258
		l-105.765-1.281c-0.396,5.606-1.844,27.122-2.512,50.912c-0.031,1.117-0.624,2.103-1.585,2.637
		c-0.93,0.516-2.033,0.505-2.953-0.031c-3.98-2.32-7.101-3.085-8.785-2.155c-1.275,0.704-1.972,2.524-2.07,5.408
		c-0.4,11.784,9.273,19.005,13.451,21.563c1.011,0.618,1.622,1.697,1.636,2.888c0.415,34.138,3.755,44.769,6.484,47.675
		c0.57,0.607,0.54,1.562-0.067,2.132c-0.607,0.57-1.563,0.54-2.131-0.067c-4.566-4.862-6.955-21.12-7.302-49.703
		c-0.002-0.145-0.077-0.278-0.195-0.352c-4.629-2.834-15.345-10.867-14.891-24.236c0.137-4.02,1.357-6.693,3.627-7.947
		c2.728-1.505,6.686-0.77,11.762,2.19c0.78-27.725,2.606-52.305,2.625-52.55l0.106-1.413l111.646,1.353l-0.031,1.521
		c-0.005,0.249-0.531,25.247-1.897,52.867c-0.031,0.629-5.358,67.902-8.249,74.36c-1.522,3.401-4.363,6.354-8.446,8.777
		C478.984,1081.994,471.088,1086.567,437.514,1086.567z"/>
	<path style="fill:#0E2549;" d="M429.451,1009.11c-0.073,0-0.146-0.002-0.219-0.007c-1.93-0.119-3.397-1.78-3.277-3.709l0.139-2.243
		c0.12-1.929,1.786-3.405,3.709-3.277c1.93,0.119,3.397,1.78,3.277,3.709l-0.139,2.243
		C432.826,1007.682,431.285,1009.11,429.451,1009.11z"/>
	<path style="fill:#0E2549;" d="M475.426,1010.638c-0.026,0-0.052,0-0.078-0.001c-1.933-0.042-3.465-1.643-3.423-3.575l0.058-2.648
		c0.042-1.933,1.67-3.438,3.575-3.423c1.933,0.042,3.465,1.643,3.423,3.575l-0.058,2.648
		C478.882,1009.12,477.324,1010.638,475.426,1010.638z"/>
	<path style="fill:#0E2549;" d="M444.074,992.01c-0.155,0-0.313-0.018-0.47-0.054c-0.187-0.044-18.85-4.354-27.907-0.862
		c-1.054,0.407-2.243-0.119-2.65-1.176c-0.408-1.056,0.119-2.243,1.175-2.65c10.234-3.946,29.502,0.504,30.318,0.696
		c1.102,0.259,1.786,1.361,1.527,2.464C445.847,991.373,445.004,992.01,444.074,992.01z"/>
	<path style="fill:#0E2549;" d="M436.318,1044.208c-1.75,2.516,6.913,11.311,17.105,10.985
		c16.631-0.531,21.921-11.861,17.893-11.104c-1.579,0.297-7.651,3.65-17.608,3.775C442.967,1048,437.493,1042.521,436.318,1044.208z
		"/>
	<path style="fill:#0E2549;" d="M404.489,926.77c0,0-50.579-13.207-36.179,54.542c8.232,38.731-9.577-11.295,34.353-39.109
		C407.222,939.316,404.489,926.77,404.489,926.77z"/>
	<path style="fill:#0E2549;" d="M500.134,981.695c0,0,2.747-26.877-9.711-32.051c-12.458-5.174-10.313,7.646-35.323,7.561
		c-25.01-0.085-45.327-11.089-54.841-9.497c-9.514,1.592-19.615,16.997-19.615,16.997l-2.353-25.818l57.051-7.413l38.617,4.212
		l22.78,6.422L500.134,981.695z"/>
	<path style="fill:#0E2549;" d="M458.508,1035.156c-0.805,0-1.524-0.565-1.69-1.385c-0.189-0.935,0.415-1.846,1.349-2.036
		c3.51-0.714,7.461-2.449,7.746-3.896c0.465-2.36,0.36-2.744-3.755-13.691c-0.926-2.464-2.046-5.443-3.393-9.078l-0.042-0.127
		c-0.094-0.33-2.293-8.148-1.205-13.208c0.369-1.714,1.862-3.142,4.44-4.246c6.546-2.804,18.688-2.959,25.64,1.303
		c0.814,0.499,1.069,1.562,0.57,2.376c-0.499,0.813-1.562,1.069-2.376,0.57c-6.365-3.901-17.38-3.254-22.475-1.072
		c-1.77,0.758-2.355,1.486-2.422,1.797c-0.862,4.01,0.94,10.768,1.133,11.475c1.334,3.598,2.444,6.551,3.363,8.996
		c4.233,11.263,4.579,12.183,3.91,15.574c-0.88,4.464-8.859,6.293-10.45,6.614C458.736,1035.146,458.622,1035.156,458.508,1035.156z
		"/>
	<path style="fill:#E2474B;" d="M590.38,1700.95c-37.64-3.69-76.54-10.09-115.11-20.28c-13.44-3.55-26.84-7.56-40.14-12.09
		l-3.2-30.061l-0.2,28.891c-14.31-4.96-28.48-10.521-42.44-16.73l-3.92,11.24c-1.09,3.13-4.51,4.78-7.64,3.69l-55.74-19.44
		l-34.34-11.97c0.34-10.771,0.72-20.84,1.14-30.13c0.22-4.65,0.44-9.101,0.68-13.33c0.02-0.42,0.05-0.84,0.07-1.25
		c1.15-19.99,2.58-35.18,4.33-44.21c0.2-1.011,0.39-2,0.59-2.99c0.4-1.979,0.8-3.92,1.21-5.82v-0.05c0.38-1.77,0.76-3.48,1.15-5.18
		c2.54-11.21,5.25-21.03,8.02-29.65c0,0,0,0,0-0.01c5.78-18,11.82-30.71,17.15-39.59c9.19-15.33,16.28-19.24,16.28-19.24h0.5
		l50.22-0.45h0.02l86.26-0.78l53.84-0.479c0,0,12.64-2.2,37.63,81l0.01,0.021c0.08,0.27,0.16,0.55,0.24,0.829
		c0.01,0.021,0.01,0.03,0.01,0.04c1.53,5.12,3.12,10.57,4.75,16.36v0.01c0.73,2.601,1.46,5.261,2.21,7.99
		c0.39,1.42,0.78,2.87,1.18,4.34c1.5,5.56,2.9,12.37,4.2,20.3c4.07,24.721,7.23,60.301,9.66,102.601
		C589.48,1683.07,589.95,1691.89,590.38,1700.95z"/>
	<path style="fill:#0E2549;" d="M206.265,1320.43c-1.477,2.314,84.445,41.89,84.445,41.89l22.146-27.26l-18.881,231.035
		l306.624,6.261l-18.555-230.025l47.672,12.191c0,0-44.998-189.91-129.234-204.012c-10.503-1.758-26.288,26.763-39.76,27.069
		c-29.173,0.665-71.46-31.888-105.007-27.069C338.714,1152.952,281.714,1202.246,206.265,1320.43z"/>
	<path style="fill:#E2474B;" d="M544.236,1264.607l-195.176-1.133c0,0-15.638,90.782-43.94,108.443l-11.145,194.177l277.111,5.658
		L544.236,1264.607z"/>
	<path style="fill:#FFFFFF;" d="M583.524,1683.952c-0.974,1.648-3.689,1.08-3.786-0.796c-0.479-9.307,0.875-25.986,1.672-33.893
		c0.556-5.52-3.654-21.767-3.654-21.767s-20.782,20.711-22.247,15.158c-1.464-5.553,18.789-29.415,18.3-37.519
		c-0.489-8.104-22.396-267.105-22.396-267.105l61.393-3.438l-15.518,268.422c0,0,9.825,31.2,8.329,37.799
		C603.717,1649.193,589.707,1673.486,583.524,1683.952z"/>
	<path style="fill:#0E2549;" d="M581.774,1686.426c-0.299,0-0.602-0.036-0.905-0.11c-1.519-0.374-2.551-1.583-2.628-3.082
		c-0.58-11.252,1.445-31.813,1.677-34.12c0.368-3.652-1.656-13.178-2.983-18.704c-6.068,5.891-16.924,15.684-20.993,14.586
		c-0.949-0.257-1.617-0.952-1.882-1.957c-0.834-3.163,2.7-9.015,8.534-18.299c4.66-7.416,9.941-15.82,9.719-19.513
		c-0.482-7.992-22.175-264.479-22.394-267.069l-0.13-1.537l64.613-3.618l-15.6,269.825c1.339,4.272,9.785,31.678,8.278,38.319
		c-1.884,8.308-14.758,30.863-22.265,43.568l0,0C584.176,1685.798,583.021,1686.426,581.774,1686.426z M578.552,1624.587
		l0.657,2.534c0.174,0.674,4.271,16.572,3.695,22.293c-0.836,8.289-2.128,24.707-1.667,33.665c0.01,0.198,0.195,0.285,0.348,0.323
		c0.076,0.018,0.465,0.096,0.648-0.213l0,0c5.971-10.107,20.061-34.502,21.922-42.707c1.032-4.551-4.396-24.631-8.296-37.018
		l-0.083-0.262l0.016-0.275l15.421-266.742l-58.174,3.257c1.815,21.468,21.805,257.901,22.269,265.604
		c0.281,4.652-4.797,12.733-10.173,21.288c-3.589,5.711-8.471,13.48-8.204,15.774c2.325-0.113,11.17-7.107,19.767-15.675
		L578.552,1624.587z"/>
	<path style="fill:#EAB7C2;" d="M471.356,1550.162l-137.843-48.067c-7.6-2.65-11.612-10.96-8.962-18.56l15.009-43.04
		c2.65-7.601,10.959-11.612,18.56-8.963l137.843,48.067L471.356,1550.162z"/>
	
		<rect x="304.387" y="1530.198" transform="matrix(0.3293 -0.9442 0.9442 0.3293 -1234.2272 1373.7693)" style="fill:#EAB7C2;" width="90.932" height="50.866"/>
	<path style="fill:#0E2549;" d="M398.47,1624.35l-9.18,26.33l-3.92,11.24c-1.09,3.13-4.51,4.78-7.64,3.69l-55.74-19.44l-34.34-11.97
		l-2.69-0.94c-3.13-1.09-4.78-4.51-3.69-7.64l7.52-21.55l3.82-10.95l1.27-3.63l0.5-1.44c1.09-3.13,4.51-4.78,7.64-3.689l9.7,3.38
		l5.01,1.75l5.26,1.83l37.76,13.17l35.03,12.22C397.91,1617.8,399.56,1621.22,398.47,1624.35z"/>
	<path style="fill:#0E2549;" d="M483.406,1558.086l-12.965-4.521c-2.352-0.82-3.594-3.392-2.774-5.744l24.254-69.554
		c0.82-2.353,3.392-3.595,5.744-2.774l12.965,4.521c2.352,0.82,3.594,3.392,2.774,5.744l-24.254,69.554
		C488.33,1557.664,485.758,1558.906,483.406,1558.086z"/>
	<path style="fill:#0E2549;" d="M506.451,1557.761l-16.809-5.861l20.464-58.685l16.809,5.86c5.476,1.909,8.366,7.896,6.457,13.372
		l-13.55,38.856C517.913,1556.779,511.926,1559.67,506.451,1557.761z"/>
	<path style="fill:#0E2549;" d="M571.534,1552.442l-51-17.784c-3.183-1.109-4.864-4.59-3.753-7.773l0,0
		c1.11-3.184,4.59-4.864,7.773-3.754l51.001,17.784c3.183,1.11,4.864,4.591,3.754,7.773l0,0
		C578.197,1551.872,574.717,1553.553,571.534,1552.442z"/>
	<path style="fill:#0E2549;" d="M349.854,1489.948c-0.155,0-0.312-0.023-0.467-0.074c-0.788-0.258-1.217-1.104-0.959-1.893
		l13.646-41.703c0.258-0.786,1.107-1.216,1.892-0.959c0.788,0.258,1.217,1.104,0.96,1.893l-13.646,41.703
		C351.072,1489.547,350.485,1489.948,349.854,1489.948z"/>
	<path style="fill:#0E2549;" d="M442.642,1541.648c-0.165,0-0.333-0.027-0.498-0.085l-111.938-39.385
		c-0.781-0.275-1.192-1.132-0.917-1.913c0.275-0.781,1.129-1.19,1.913-0.917l111.938,39.385c0.781,0.275,1.192,1.132,0.917,1.913
		C443.84,1541.263,443.261,1541.648,442.642,1541.648z"/>
	<path style="fill:#FFFFFF;" d="M241.047,1303.579c27.752-13.487,62.667,27.971,62.667,27.971
		c1.334,1.141-53.029,93.384-44.716,105.403c18.458,26.688,51.546,73.884,67.546,92.695c4.08-4.439,12.993-11.179,17.94-12.231
		c0.796-0.169,1.503,0.488,1.275,1.213c-1.062,3.379-3.965,12.516-6.261,18.794c13.892,7.85,40.922,15.207,38.548,23.155
		c-4.214,14.109-16.325,36.002-30.985,31.407c-22.788-7.141-45.601-42.422-49.149-46.268
		c-12.438-13.479-103.648-86.056-114.146-118.899C179.17,1412.44,219.438,1314.081,241.047,1303.579z"/>
	<path style="fill:#0E2549;" d="M351.055,1594.11c-1.484,0-2.966-0.23-4.441-0.692c-19.484-6.105-38.521-31.671-46.651-42.588
		c-1.463-1.965-2.619-3.517-3.152-4.094c-3.014-3.267-10.979-10.279-21.065-19.158c-31.93-28.111-85.372-75.161-93.408-100.302
		c-2.707-8.467,7.884-39.181,18.869-64.136c5.5-12.494,24.581-53.813,39.185-60.911l0,0c28.083-13.642,62.062,25.518,64.391,28.261
		c1.17,1.017,0.938,1.454-8.303,18.841c-7.111,13.38-17.857,33.601-25.81,51.097c-12.116,26.651-11.74,33.789-10.438,35.672
		c17.947,25.949,50.071,71.778,66.389,91.313c4.518-4.461,12.571-10.402,17.551-11.462c0.919-0.198,1.88,0.104,2.499,0.785
		c0.585,0.644,0.779,1.521,0.519,2.345c-1.054,3.355-3.636,11.478-5.845,17.648c4.18,2.245,9.451,4.491,14.563,6.669
		c13.726,5.849,25.581,10.899,23.576,17.611c-3.536,11.841-11.359,26.05-20.863,31.1
		C356.112,1593.442,353.581,1594.11,351.055,1594.11z M252.959,1302.396c-3.829,0-7.615,0.763-11.256,2.533
		c-9.097,4.421-23.563,27.189-37.751,59.421c-12.533,28.471-20.772,55.71-18.757,62.013c7.784,24.351,60.835,71.058,92.533,98.964
		c10.15,8.937,18.168,15.995,21.288,19.375c0.64,0.694,1.719,2.144,3.353,4.337c7.956,10.684,26.586,35.702,45.142,41.517
		c3.187,1,6.454,0.631,9.703-1.095c8.691-4.619,16.147-18.431,19.396-29.311c1.238-4.144-11.579-9.604-21.877-13.992
		c-5.651-2.407-11.494-4.896-15.972-7.428l-1.108-0.626l0.437-1.195c2.099-5.74,4.689-13.82,5.954-17.825
		c-4.529,1.409-12.419,7.253-16.396,11.58l-1.148,1.249l-1.099-1.292c-16.031-18.848-49.258-66.241-67.637-92.813
		c-6.106-8.828,15.415-51.025,36.066-89.884c3.785-7.122,7.38-13.888,8.244-15.973
		C298.413,1327.807,275.042,1302.396,252.959,1302.396z"/>
	<path style="fill:#0E2549;" d="M432.058,1633.862c-0.063,0-0.126-0.004-0.191-0.012c-0.822-0.104-1.403-0.855-1.299-1.677
		l4.895-38.578l23.758-15.679v-21.152c0-0.828,0.671-1.5,1.5-1.5c0.829,0,1.5,0.672,1.5,1.5v22.768l-23.956,15.808l-4.721,37.211
		C433.448,1633.309,432.802,1633.862,432.058,1633.862z"/>
	<path style="fill:#0E2549;" d="M605.192,1274.988c0,0,27.93,68.595,24.241,84.814h-78.019l-5.556-76.638L605.192,1274.988z"/>
	<polygon style="fill:#0E2549;" points="320.983,1322.331 290.54,1373.195 208.434,1322.268 257.951,1253.852 	"/>
	<path style="fill:#E2474B;" d="M343.73,945.021v16.728h172.649v-16.728c0-31.792-17.35-59.562-43.133-74.422
		c-12.699-7.318-27.455-11.511-43.186-11.511c-17.082,0-32.996,4.929-46.391,13.453c-5.305,3.372-10.224,7.297-14.649,11.714
		C353.396,899.809,343.73,921.295,343.73,945.021z"/>
	<path style="fill:#EAB7C2;" d="M383.669,872.14c0,0,68.55,23.477,88.34,90.686c1.98,6.727,29.46,6.859,31.077-2.144
		c8.573-47.726-29.84-90.493-29.84-90.493c-12.699-7.351-27.455-11.563-43.186-11.563
		C412.978,858.627,397.064,863.578,383.669,872.14z"/>
	<path style="fill:#E2474B;" d="M348.815,972.649h181.051c3.938,0,7.132-3.193,7.132-7.132v-1.703c0-3.939-3.193-7.132-7.132-7.132
		H348.815c-3.939,0-7.132,3.193-7.132,7.132v1.703C341.684,969.456,344.876,972.649,348.815,972.649z"/>
	<path style="fill:#E2474B;" d="M506.777,1148.018c0,0,29.485,52.396,31.342,122.925h-18.3c0,0-6.164-94.959-28.901-122.207
		L506.777,1148.018z"/>
	<path style="fill:#E2474B;" d="M351.876,1148.018c0,0,30.957,53.954,32.814,122.925h-18.3c0,0-5.516-90.181-28.253-116.827
		L351.876,1148.018z"/>
	<path style="fill:#0E2549;" d="M479.116,1368.628h-21.312c-24.458,0-44.356-19.898-44.356-44.356v-17.773
		c0-3.274,2.664-5.938,5.939-5.938h98.147c3.274,0,5.938,2.664,5.938,5.938v17.773
		C523.472,1348.729,503.574,1368.628,479.116,1368.628z M419.387,1303.56c-1.621,0-2.939,1.318-2.939,2.938v17.773
		c0,22.804,18.552,41.356,41.356,41.356h21.312c22.804,0,41.356-18.553,41.356-41.356v-17.773c0-1.62-1.318-2.938-2.938-2.938
		H419.387z"/>
</g>
<g>
	<path style="fill:#FFFFFF;" d="M723.773,1036.826c0,0,2.609,70.505-3.645,78.546c-6.253,8.04-38.928,26.344-38.928,26.344
		l94.227,116.899l83.878-115.475c0,0-35.778-15.684-39.16-24.984c-4.68-12.87-3.824-81.33-3.824-81.33H723.773z"/>
	<path style="fill:#0E2549;" d="M775.49,1261.082l-96.572-119.808l1.549-0.867c0.324-0.182,32.48-18.246,38.477-25.956
		c4.342-5.583,4.37-49.447,3.33-77.569c-0.031-0.828,0.616-1.524,1.443-1.555c0.824-0.058,1.524,0.616,1.555,1.443
		c0.269,7.272,2.445,71.288-3.959,79.522c-5.646,7.258-31.184,22.07-37.835,25.857l91.888,113.998l81.638-112.391
		c-7.755-3.496-35.087-16.341-38.268-25.089c-4.719-12.979-3.949-79.055-3.914-81.861c0.01-0.829,0.699-1.528,1.518-1.481
		c0.829,0.011,1.492,0.69,1.482,1.519c-0.009,0.682-0.8,68.331,3.733,80.799c2.594,7.135,28.565,19.833,38.353,24.123l1.706,0.748
		L775.49,1261.082z"/>
	<path style="fill:#0E2549;" d="M748.434,894.961c-14.785,1.571-50.75,4.926-50.75,31.318c0,30.102,5.093,68.807,8.126,89.187
		c1.197,8.044,8.105,13.989,16.237,13.989h91.09c8.345,0,15.361-6.254,16.311-14.545c3.195-27.905,9.439-86.99,6.124-95.898
		C824.288,888.699,771.843,892.474,748.434,894.961z"/>
	<path style="fill:#FFFFFF;" d="M749.654,1060.536c25.834,2.993,58.092-1.89,67.044-10.843c5.25-5.249,7.355-26.011,7.953-49.697
		c0.017-0.685,0.399-1.303,0.994-1.644c6.383-3.658,15.621-11.487,15.354-23.238c-0.231-10.179-7.879-8.044-13.887-4.768
		c-1.072,0.585-2.375-0.183-2.396-1.403c-0.475-28.562-2.107-53.603-2.107-53.603H707.066c0,0,0.227,25.47,1.335,54.032
		c0.05,1.281-1.325,2.112-2.436,1.471c-6.111-3.53-14.525-6.417-14.768,4.271c-0.303,13.319,11.607,21.604,17.729,24.482
		c0.637,0.299,1.055,0.918,1.102,1.621c1.342,20.145,3.275,37.565,6.05,43.73c1.512,3.359,4.408,6.147,8.298,8.417L749.654,1060.536
		z"/>
	<path style="fill:#0E2549;" d="M765.965,1062.944c-5.538,0-11.1-0.295-16.484-0.918c-0.823-0.096-1.413-0.84-1.317-1.663
		c0.096-0.822,0.835-1.412,1.663-1.317c25.982,3.013,57.351-1.952,65.811-10.412c2.941-2.942,6.633-13.774,7.514-48.675
		c0.03-1.193,0.7-2.307,1.748-2.908c4.481-2.568,14.874-9.843,14.6-21.902c-0.066-2.912-0.773-4.778-2.099-5.545
		c-1.812-1.046-5.212-0.316-9.57,2.06c-0.967,0.527-2.112,0.51-3.062-0.043c-0.954-0.556-1.534-1.547-1.552-2.653
		c-0.405-24.397-1.672-46.459-2.017-52.128H708.582c0.069,5.897,0.376,28.189,1.318,52.474c0.044,1.139-0.534,2.211-1.508,2.799
		c-0.973,0.589-2.191,0.598-3.177,0.028c-4.75-2.744-8.439-3.653-10.389-2.557c-1.346,0.757-2.063,2.629-2.13,5.564
		c-0.331,14.579,15.106,22.262,16.868,23.09c1.126,0.53,1.878,1.633,1.96,2.879c1.943,29.16,4.293,39.595,5.922,43.215
		c1.317,2.926,3.903,5.528,7.685,7.735c0.716,0.418,0.957,1.336,0.54,2.052c-0.419,0.715-1.336,0.956-2.051,0.54
		c-4.333-2.528-7.33-5.589-8.909-9.097c-2.517-5.591-4.596-20.478-6.18-44.247c-0.011-0.161-0.102-0.296-0.243-0.363
		c-8.753-4.115-18.875-13.361-18.59-25.873c0.092-4.069,1.324-6.798,3.659-8.111c2.995-1.684,7.489-0.817,13.359,2.575
		c0.024,0.014,0.065,0.038,0.127,0.001c0.062-0.038,0.06-0.087,0.059-0.114c-1.097-28.257-1.333-53.822-1.336-54.077l-0.013-1.513
		h118.462l0.092,1.402c0.016,0.251,1.64,25.404,2.11,53.676c0,0.024,0.001,0.074,0.063,0.11c0.058,0.034,0.093,0.013,0.115,0.001
		c5.467-2.98,9.676-3.663,12.508-2.023c2.294,1.327,3.504,4.044,3.596,8.074c0.311,13.669-11.161,21.739-16.108,24.573
		c-0.146,0.084-0.236,0.226-0.24,0.38c-0.737,29.22-3.482,45.811-8.392,50.721C810.413,1058.101,788.424,1062.944,765.965,1062.944z
		"/>
	<polygon style="fill:#F9E8F2;" points="728.498,1157.688 831.748,1162.114 820.464,1275.281 709.964,1275.281 	"/>
	<path style="fill:#E2474B;" d="M954.127,1428.509c0,0-67.951,20.026-109.703,0c-62.913-30.176-93.36,28.479-146.74,13.841
		c-3.313-0.908-38.617-2.51-77.749-5.526c-42.972-3.312-58.502-23.237-61.828-30.591c-5.083-11.2-6.114-33.748-1.461-45.833
		l51.146-204.769c0,0,73.365-36.678,81.189-35.306c9.731,1.707,52.482,14.051,53.757,16.677c4.393,9.048,23.93,90.256,29.203,88.772
		c3.485-0.979,25.248-85.046,28.779-87.839c15.192-12.019,47.5-20.657,50.625-19.84l67.021,37.535l69.801,207.607
		C997.033,1385.673,975.54,1417.422,954.127,1428.509z"/>
	<path style="fill:#0E2549;" d="M651.659,1363.747c-0.123,0-0.247-0.019-0.37-0.057c-0.652-0.204-1.016-0.898-0.813-1.551
		l22.626-72.436c0.204-0.652,0.897-1.015,1.551-0.813c0.652,0.204,1.016,0.898,0.813,1.551l-22.625,72.436
		C652.674,1363.407,652.185,1363.747,651.659,1363.747z"/>
	<path style="fill:#E2474B;" d="M900.85,1555.02l-0.05,10.16l-0.06,13.34v0.011l-0.07,15.1l-0.07,16.24c-0.01,0.01,0,0.01,0,0.01
		l-0.32,67.9c-6.37,2.25-12.8,4.659-19.28,7.22c0,0-5.11,1.189-14.48,2.98c-6.19,1.189-14.24,2.64-23.91,4.189
		c-20.6,3.311-48.56,7.08-81.54,9.7c-0.1,0.01-0.21,0.02-0.31,0.03h-0.08c-40.98,3.239-89.7,4.72-141.72,1.359v-154.81l31.5,0.729
		l6.75,0.16l49.38,1.15l6.75,0.16l22.62,0.529l8,0.181l26.29,0.62l23.46,0.539l7.25,0.17l19.5,0.461l6.75,0.149l15.4,0.36
		l27.18,0.64h0.01l9.9,0.23l6.75,0.149l0.17,0.01L900.85,1555.02z"/>
	<path style="fill:#0E2549;" d="M844.425,1393.244c-0.445,0-0.876-0.241-1.097-0.663c-0.318-0.605-0.084-1.354,0.521-1.671
		l90.47-47.492c0.605-0.319,1.354-0.085,1.671,0.521c0.318,0.605,0.084,1.354-0.521,1.671l-90.47,47.492
		C844.815,1393.198,844.619,1393.244,844.425,1393.244z"/>
	<path style="fill:#0E2549;" d="M888.367,1372.105c-0.525,0-1.013-0.337-1.18-0.865l-32.074-101.47
		c-0.206-0.651,0.155-1.348,0.807-1.554c0.651-0.205,1.348,0.156,1.553,0.808l32.074,101.47c0.206,0.651-0.155,1.348-0.807,1.554
		C888.617,1372.087,888.491,1372.105,888.367,1372.105z"/>
	<path style="fill:#0E2549;" d="M795.859,983.383c-0.011,0-0.021,0-0.032,0c-1.657-0.018-2.986-1.375-2.969-3.031l0.028-2.709
		c0.018-1.657,1.333-2.963,3.031-2.969c1.657,0.018,2.986,1.375,2.969,3.031l-0.028,2.709
		C798.841,982.06,797.501,983.383,795.859,983.383z"/>
	<path style="fill:#0E2549;" d="M742.273,983.383c-1.643,0-2.983-1.324-3-2.971l-0.026-2.709c-0.016-1.657,1.315-3.013,2.971-3.029
		c0.01,0,0.02,0,0.029,0c1.644,0,2.983,1.324,3,2.971l0.026,2.709c0.016,1.657-1.314,3.013-2.971,3.029
		C742.293,983.383,742.283,983.383,742.273,983.383z"/>
	<path style="fill:#0E2549;" d="M730.9,964.606c-0.511,0-1.009-0.261-1.29-0.732c-0.424-0.711-0.192-1.632,0.52-2.056
		c9.628-5.742,19.805-3.023,20.234-2.904c0.798,0.221,1.266,1.047,1.045,1.846c-0.221,0.797-1.044,1.266-1.844,1.046
		c-0.13-0.037-9.416-2.471-17.899,2.588C731.426,964.538,731.161,964.606,730.9,964.606z"/>
	<path style="fill:#0E2549;" d="M807.2,965.108c-0.261,0-0.526-0.068-0.767-0.212c-8.499-5.067-17.807-2.614-17.899-2.588
		c-0.799,0.217-1.624-0.252-1.842-1.049c-0.22-0.798,0.247-1.623,1.044-1.843c0.429-0.118,10.605-2.839,20.233,2.904
		c0.712,0.424,0.944,1.345,0.52,2.056C808.209,964.847,807.71,965.108,807.2,965.108z"/>
	<polygon style="fill:#E2474B;" points="612.464,1428.509 618.958,1548.448 900.845,1555.02 903.692,1408.621 	"/>
	<path style="fill:#0E2549;" d="M638.638,1438.952c-10.779,0-22.711-0.891-35.478-3.222c-0.673-0.123-1.118-0.768-0.996-1.44
		c0.123-0.672,0.767-1.118,1.44-0.995c48.889,8.926,85.293-3.525,90.95-5.636c0.096-24.406,4.307-42.659,5.484-47.287
		l-76.566-25.802c-0.647-0.218-0.996-0.92-0.777-1.568c0.218-0.647,0.919-0.994,1.568-0.777l78.781,26.548l-0.324,1.136
		c-0.057,0.199-5.692,20.292-5.692,48.601v0.828l-0.765,0.315C695.968,1429.774,673.247,1438.952,638.638,1438.952z"/>
	<path style="fill:#0E2549;" d="M760.698,1699.48c-0.764,0-1.417-0.581-1.491-1.356l-5.116-53.387l-16.592-4.195l-10.414-29.298
		c-0.277-0.78,0.13-1.638,0.911-1.915c0.78-0.281,1.638,0.13,1.916,0.911l9.877,27.786l17.087,4.32l5.317,55.49
		c0.079,0.825-0.525,1.558-1.35,1.637C760.794,1699.479,760.746,1699.48,760.698,1699.48z"/>
	<path style="fill:#FFFFFF;" d="M695.79,1428.509l149.055-37.994c0,0,39.394-17.541,39.648-31.915l-14.758-45.373
		c-3.777,1.618-18.145,23.225-33.976,34.569c-12.753,9.138-27.935,8.621-27.935,8.621L702.61,1370.36L695.79,1428.509z"/>
	<path style="fill:#0E2549;" d="M694.046,1430.501l7.209-61.475l106.495-14.112l0.125,0.004c0.141-0.003,14.846,0.374,27.011-8.342
		c9.614-6.889,18.629-17.563,25.212-25.357c4.912-5.815,7.349-8.644,9.046-9.371l1.509-0.646l15.344,47.174l-0.004,0.251
		c-0.27,15.155-38.894,32.527-40.538,33.259l-0.24,0.083L694.046,1430.501z M703.964,1371.694l-6.429,54.822l146.816-37.424
		c10.72-4.792,38.05-19.343,38.635-30.281l-14.022-43.108c-1.611,1.576-4.123,4.55-6.574,7.452
		c-6.685,7.914-15.839,18.753-25.757,25.859c-12.537,8.983-27.099,8.94-28.729,8.905L703.964,1371.694z"/>
	<path style="fill:#E2474B;" d="M680.104,1370.713c0,0-10.57,60.845-6.917,68.245c3.653,7.4,30.444-2.244,30.444-2.244l6.332-59.037
		L680.104,1370.713z"/>
	<path style="fill:#0E2549;" d="M680.746,1443.248c-4.163,0-7.58-0.945-8.903-3.626c-3.761-7.619,5.693-62.888,6.784-69.165
		l0.272-1.564l32.699,7.625l-6.574,61.29l-0.883,0.317C700.989,1439.26,689.295,1443.248,680.746,1443.248z M681.311,1372.536
		c-4.169,24.297-9.247,60.759-6.779,65.758c2.052,4.16,17.129,1.009,27.708-2.679l6.09-56.779L681.311,1372.536z"/>
	<path style="fill:#FFFFFF;" d="M856.331,1364.206c0,0-117.136-15.456-136.621-17.404c-19.484-1.948-15.935-13.133-32.496-15.081
		c-16.562-1.948-23.453-7.961-23.453-7.961l-12.103,38.749c0,0,62.438,21.181,70.231,25.078
		c7.794,3.896,110.086,48.711,139.313,45.788c29.227-2.923,37.995-6.819,37.995-6.819L856.331,1364.206z"/>
	<path style="fill:#0E2549;" d="M858.225,1435.012c-33.371,0-129.172-42.167-137.006-46.083
		c-7.614-3.807-69.418-24.788-70.042-24.999l-1.386-0.471l13.226-42.341l1.732,1.512c0.063,0.054,6.837,5.742,22.642,7.602
		c8.378,0.985,11.993,4.28,15.489,7.468c3.746,3.415,7.284,6.641,16.982,7.61c19.285,1.929,135.496,17.255,136.667,17.409
		l0.662,0.088l44.267,64.387l-1.649,0.733c-0.367,0.163-9.323,4.027-38.455,6.94
		C860.383,1434.965,859.338,1435.012,858.225,1435.012z M653.526,1361.56c9.479,3.224,61.795,21.066,69.034,24.686
		c7.694,3.847,109.674,48.511,138.493,45.638c21.658-2.166,32.034-4.89,35.801-6.088l-41.38-60.189
		c-9.519-1.254-117.432-15.463-135.912-17.312c-10.685-1.068-14.945-4.951-18.704-8.378c-3.433-3.13-6.398-5.833-13.818-6.706
		c-12.274-1.443-19.393-5.069-22.463-7.027L653.526,1361.56z"/>
	<path style="fill:#E2474B;" d="M854.824,1363.333l34.835-8.473c0,0,17.799,34.525,22.577,78.651c0,0-42.843,8.483-46.942,4.232
		C861.194,1433.493,850.801,1390.869,854.824,1363.333z"/>
	<path style="fill:#0E2549;" d="M872.319,1440.371c-4.018,0-7.007-0.447-8.105-1.586c-4.902-5.084-14.89-48.185-10.875-75.669
		l0.146-1.002l36.965-8.99l0.541,1.049c0.179,0.348,17.981,35.281,22.735,79.178l0.148,1.365l-1.348,0.268
		C904.885,1436.496,884.146,1440.371,872.319,1440.371z M856.17,1364.55c-3.524,26.817,6.441,68.252,10.204,72.153
		c2.246,2.189,24.42-0.55,44.218-4.397c-4.422-38.459-18.817-69.667-21.745-75.704L856.17,1364.55z"/>
	<polygon style="fill:#E2474B;" points="745.056,1138.042 704.729,1154.742 658.004,1118.07 691.523,1114.01 	"/>
	<path style="fill:#0E2549;" d="M704.493,1156.464l-50.261-39.448l37.525-4.545l57.085,25.627L704.493,1156.464z M661.777,1119.123
		l43.189,33.897l36.304-15.034l-49.98-22.438L661.777,1119.123z"/>
	<polygon style="fill:#E2474B;" points="799.649,1137.368 838.082,1157.688 878.331,1118.51 853.498,1111.064 	"/>
	<path style="fill:#0E2549;" d="M838.346,1159.523l-42.005-22.208l57.026-27.856l27.838,8.347L838.346,1159.523z M802.958,1137.421
		l34.859,18.431l37.639-36.638l-21.828-6.544L802.958,1137.421z"/>
	<path style="fill:#0E2549;" d="M771.942,1354.743c-0.84,0-1.521-0.682-1.521-1.521v-127.447c0-0.84,0.681-1.521,1.521-1.521
		c0.84,0,1.521,0.682,1.521,1.521v127.447C773.464,1354.062,772.783,1354.743,771.942,1354.743z"/>
	<rect x="768.753" y="1409.528" style="fill:#0E2549;" width="3" height="147.236"/>
	<path style="fill:#0E2549;" d="M768.388,1011.701c-0.117,0-0.236-0.012-0.356-0.038c-1.613-0.346-9.705-2.304-10.539-6.828
		c-0.638-3.453-0.273-4.389,4.189-15.837c0.976-2.503,2.155-5.529,3.574-9.219c0.334-0.869,1.309-1.302,2.178-0.968
		c0.869,0.334,1.302,1.31,0.968,2.178c-1.422,3.696-2.603,6.727-3.58,9.233c-4.353,11.169-4.465,11.562-4.015,14.002
		c0.306,1.658,4.804,3.473,7.933,4.145c0.91,0.195,1.489,1.091,1.294,2.001C769.864,1011.16,769.165,1011.701,768.388,1011.701z"/>
	<path style="fill:#0E2549;" d="M785.542,1024.234c1.759,2.594-7.208,11.479-17.624,11.02
		c-16.998-0.748-22.267-12.398-18.157-11.573c1.611,0.323,7.778,3.827,17.957,4.078
		C778.697,1028.029,784.362,1022.494,785.542,1024.234z"/>
	<path style="fill:#0E2549;" d="M718.268,917.922c0,0,77.549,22.407,112.621-4.871c35.072-27.278-20.657-28.397-54.168-24.988
		C743.209,891.474,696.203,898.266,718.268,917.922z"/>
	<path style="fill:#0E2549;" d="M734.413,900.659c0,0-52.523-12.728-36.315,56.215c2.777,11.813,2.255,17.165,3.614,7.558
		c1.545-10.921,7.313-32.552,31.024-47.971C737.362,913.453,734.413,900.659,734.413,900.659z"/>
	<rect x="615.464" y="1530.254" style="fill:#0E2549;" width="288.228" height="34.924"/>
	<rect x="650.464" y="1525.781" style="fill:#E2474B;" width="6.75" height="42.5"/>
	<rect x="706.589" y="1526.466" style="fill:#E2474B;" width="6.75" height="42.5"/>
	<rect x="820.464" y="1526.466" style="fill:#E2474B;" width="6.75" height="42.5"/>
	<rect x="879.701" y="1527.24" style="fill:#E2474B;" width="6.75" height="42.5"/>
	<rect x="735.964" y="1526.49" style="fill:#F9E8F2;" width="65" height="43.916"/>
	<rect x="743.964" y="1533.24" style="fill:#0E2549;" width="49.75" height="30.5"/>
	<path style="fill:#E2474B;" d="M846.654,910.972v15.61h-161.11v-15.61c0-29.667,16.19-55.581,40.25-69.448
		c11.85-6.829,25.62-10.742,40.3-10.742c15.94,0,30.79,4.599,43.29,12.554c4.95,3.146,9.539,6.809,13.67,10.931
		C837.634,868.781,846.654,888.831,846.654,910.972z"/>
	<path style="fill:#EAB7C2;" d="M809.384,842.962l-20.88,83.62l-0.37,1.48h-38.17l-0.41-1.48l-23.76-85.44
		c11.85-6.86,25.62-10.79,40.3-10.79C782.034,830.352,796.884,834.972,809.384,842.962z"/>
	<path style="fill:#E2474B;" d="M850.097,935.515H682.1c-3.939,0-7.132-3.193-7.132-7.132v-0.636c0-3.939,3.193-7.132,7.132-7.132
		h167.997c3.939,0,7.132,3.193,7.132,7.132v0.636C857.228,932.321,854.036,935.515,850.097,935.515z"/>
</g>
<g>
	<path style="fill:#0E2549;" d="M1169.93,1649.88c-45.939-3.17-89.869-4.58-134.21-0.94l1.49-16.379l3.94-43.311l-13.971,55.08v0.01
		l-1.39,5.5c-1.2,0.11-2.41,0.24-3.61,0.37l-20.69,24.29l-22.44-18c-25.65,4.82-51.76,11.71-78.77,21.28
		c-6.37,2.25-12.8,4.659-19.28,7.22c0,0-5.11,1.189-14.48,2.98c9.98-31.291,19.02-59.99,26.66-84.74
		c1.33-4.301,2.61-8.48,3.85-12.53c1.29-4.2,2.52-8.26,3.71-12.18v-0.011c2.53-8.35,4.82-16.06,6.86-23.02
		c3.76-12.85,6.64-23.22,8.48-30.61c4.14-16.649,8.31-30.5,12.38-42c0.87-2.47,1.73-4.819,2.59-7.079
		c0.01-0.011,0.01-0.011,0.01-0.021c5.29-13.851,10.36-23.851,14.93-31.05c11.72-18.48,20.09-18.59,20.29-18.59l1.8,0.02
		l152.18,1.48c0,0,0.69,0.369,1.92,1.27c0.76,0.561,1.71,1.311,2.84,2.311c1.65,1.459,3.66,3.439,5.891,6.05
		c4.66,5.42,10.31,13.569,15.88,25.5c1.37,2.95,2.74,6.12,4.09,9.54c4.89,12.43,9.49,28.1,13.021,47.77
		c0.529,2.96,1.029,6.78,1.489,11.41v0.01c0,0.01,0,0.01,0,0.021c0.261,2.62,0.511,5.5,0.74,8.62
		c1.681,22.039,2.84,56.21,3.601,97.93C1169.8,1641.95,1169.86,1645.88,1169.93,1649.88z"/>
	<path style="fill:#0E2549;" d="M1084.938,944.731c0,0-35.458,7.207-67.471,36.849s-29.718,31.175-26.753,56.667
		c2.964,25.491,0.646,32.556-19.636,39.924c-7.283,2.646-12.622,6.407-17.364,14.707c-4.743,8.299-2.753,37.94-2.753,37.94
		l218.122-1.664c0,0,12.345-27.995,7.517-41.193c-8.811-24.081-29.235-27.367-21.552-51.019
		C1159.164,1024.271,1170.05,950.177,1084.938,944.731z"/>
	<path style="fill:#A1C5E2;" d="M942.712,1480.412c-0.751,0-1.399-0.563-1.488-1.326c-0.096-0.822,0.493-1.567,1.316-1.664
		l61.528-7.188c0.813-0.094,1.567,0.493,1.664,1.316c0.096,0.822-0.493,1.567-1.316,1.664l-61.528,7.188
		C942.829,1480.409,942.77,1480.412,942.712,1480.412z"/>
	<polygon style="fill:#FFFFFF;" points="1099.784,1584.381 1049.347,1643.334 1038.619,1655.863 1038.619,1655.874 
		1033.272,1662.123 1011.144,1687.98 987.144,1668.818 931.595,1624.471 903.317,1601.893 899.424,1598.784 875.157,1579.41 
		865.382,1571.606 862.58,1569.371 870.291,1560.024 870.302,1560.024 872.943,1556.82 880.89,1547.187 888.109,1538.447 
		890.419,1535.647 891.424,1534.423 904.333,1518.796 933.039,1484.008 935.669,1480.824 946.215,1468.05 948.258,1465.57 
		964.033,1477.939 975.412,1486.86 1049.507,1544.962 1055.614,1549.752 	"/>
	<path style="fill:#0E2549;" d="M1011.342,1690.058l-150.889-120.465l87.579-106.106l153.91,120.68L1011.342,1690.058z
		 M864.707,1569.149l146.24,116.754l86.68-101.308l-149.143-116.941L864.707,1569.149z"/>
	<path style="fill:#FFFFFF;" d="M925.519,1515.409c-8.712,34.553-14.07,54.648-13.122,60.057
		c1.333,7.606,14.84,32.749,14.933,38.817c0.056,3.68-15.08-9.189-15.825-9.595l-2.721,6.212c0,0-4.28,2.437-6.982,0.369
		c-2.314-1.771-2.558-6.201-4.902-7.461c-0.214-0.115-5.206-0.564-6.774-1.407c-1.988-1.069-2.516-5.76-3.729-7.454
		c-0.893-1.246-5.416-0.618-6.937-2.285c-2.435-2.67-0.27-6.471-1.958-8.404c-1.59-1.821-5.245,0.215-7.88-3.102
		c-2.577-3.242,15.656-18.878,16.508-23.262c2.986-15.365,3.462-91.403,20.82-116.215
		C924.308,1416.867,939.701,1459.166,925.519,1515.409z"/>
	<path style="fill:#0E2549;" d="M926.706,1616.45c-1.882,0-5.323-2.02-14.431-9.268c-0.056-0.044-0.111-0.088-0.167-0.132
		l-2.149,4.907l-0.432,0.246c-0.209,0.12-5.183,2.897-8.636,0.256c-1.423-1.09-2.172-2.822-2.832-4.351
		c-0.51-1.18-1.036-2.396-1.717-2.885c-0.167-0.025-0.408-0.058-0.7-0.098c-2.45-0.334-4.948-0.718-6.225-1.404
		c-1.745-0.938-2.527-3.295-3.218-5.373c-0.319-0.961-0.648-1.952-0.97-2.453c-0.327-0.171-1.327-0.313-1.999-0.409
		c-1.737-0.248-3.705-0.529-4.877-1.814c-1.733-1.9-1.683-4.139-1.642-5.938c0.024-1.055,0.046-2.051-0.338-2.491
		c-0.271-0.31-1.021-0.365-1.889-0.43c-1.735-0.128-4.111-0.304-6.035-2.725c-2.157-2.715,1.769-7.316,8.894-15.216
		c3.132-3.473,7.03-7.795,7.315-9.266c0.746-3.837,1.342-11.675,2.096-21.598c2.312-30.414,5.806-76.377,18.968-95.19
		c6.051-8.652,11.254-8.67,14.554-7.162c11.622,5.313,17.231,40.343,6.699,82.118l-2.637,10.432
		c-6.778,26.782-11.255,44.476-10.463,48.999c0.595,3.394,3.945,10.921,7.186,18.2c3.968,8.913,7.715,17.331,7.77,20.854
		c0.013,0.875-0.407,1.608-1.125,1.961C927.415,1616.365,927.093,1616.45,926.706,1616.45z M910.787,1602.59l1.436,0.781
		c0.233,0.127,0.504,0.338,1.92,1.464c6.685,5.32,9.958,7.491,11.526,8.253c-0.781-3.707-4.248-11.495-7.349-18.46
		c-3.467-7.789-6.743-15.145-7.401-18.903c-0.903-5.155,3.151-21.173,10.51-50.253l2.636-10.43
		c10.695-42.417,4.275-74.399-5.037-78.655c-4.101-1.875-8.162,2.313-10.849,6.152c-12.691,18.141-16.286,65.439-18.435,93.699
		c-0.762,10.02-1.363,17.935-2.142,21.942c-0.424,2.179-3.329,5.486-8.033,10.702c-3.282,3.64-8.746,9.697-8.701,11.429
		c1.091,1.309,2.365,1.403,3.836,1.512c1.334,0.099,2.847,0.21,3.928,1.448c1.15,1.317,1.112,3.025,1.077,4.532
		c-0.034,1.521-0.064,2.835,0.859,3.848c0.446,0.489,1.971,0.707,3.084,0.866c1.631,0.232,3.172,0.452,3.963,1.557
		c0.602,0.84,1.004,2.049,1.429,3.329c0.437,1.315,1.098,3.304,1.792,3.677c0.906,0.487,4.033,0.914,5.211,1.075
		c1.073,0.146,1.266,0.173,1.563,0.331c1.677,0.901,2.453,2.697,3.203,4.434c0.54,1.25,1.099,2.543,1.902,3.157
		c1.461,1.121,3.935,0.173,4.914-0.277L910.787,1602.59z"/>
	<path style="fill:#FFFFFF;" d="M1181.766,1366.252c-1.076,0.998,1.033,2.796-33.695,48.462
		c-21.335,28.054-33.564,44.595-38.33,47.199c-10.766,5.885-25.419,15.941-23.373,16.806l54.604,8.57c0,0-4.304-12.549-1.441-15.912
		c10.035-11.789,71.562-84.348,80.032-113.075S1181.766,1366.252,1181.766,1366.252z"/>
	<path style="fill:#0E2549;" d="M1143.198,1489.157l-57.415-9.057c-0.647-0.273-1.072-0.872-1.106-1.562
		c-0.043-0.854-0.108-2.146,8.599-8.189c4.79-3.325,10.823-7.063,15.745-9.753c3.983-2.177,14.902-16.56,31.43-38.332l6.426-8.459
		c18.954-24.923,30.07-40.854,33.04-47.353c0.245-0.536,0.422-0.923,0.83-1.301l0.088-0.076
		c5.059-4.011,30.707-23.748,38.823-18.268c2.727,1.84,3.166,5.737,1.344,11.917c-8.062,27.337-63.522,93.88-80.328,113.624
		c-1.575,1.85,0.094,9.718,1.718,14.453L1143.198,1489.157z M1088.727,1477.57l50.085,7.861c-1.222-4.174-3.015-11.982-0.424-15.027
		c16.71-19.629,71.842-85.757,79.736-112.526c1.346-4.564,1.294-7.612-0.145-8.583c-4.866-3.284-24.095,9.285-35.165,18.04
		c-0.05,0.09-0.097,0.206-0.17,0.365c-3.062,6.699-14.293,22.822-33.38,47.922l-6.425,8.457
		c-17.947,23.643-27.834,36.666-32.38,39.15C1101.757,1467.986,1092.033,1474.588,1088.727,1477.57z"/>
	<path style="fill:#FFFFFF;" d="M1101.866,1074.007c0,0-3.059,75.179-0.188,79.135c9.824,13.537,38.931,25.45,45.573,27.239
		c6.644,1.788-108.631,45.757-108.631,45.757l-65.416-41.948l29.709-10.797c0,0,19.628-2.641,27.509-10.781
		c7.88-8.14,11.712-84.625,11.712-84.625L1101.866,1074.007z"/>
	<path style="fill:#0E2549;" d="M1038.447,1227.809l-68.605-43.993l32.871-11.909c0.191-0.026,19.207-2.669,26.631-10.338
		c5.494-5.675,9.763-53.139,11.292-83.657l0.066-1.333l62.73-4.179l-0.067,1.668c-1.152,28.319-2.29,74.605-0.438,78.25
		c9.184,12.647,37.105,24.566,44.713,26.615c0.974,0.262,1.354,1.003,1.385,1.609c0.083,1.646,0.178,3.511-55.32,25.692
		c-26.951,10.772-54.277,21.201-54.551,21.305L1038.447,1227.809z M976.567,1184.563l62.226,39.903
		c37.223-14.209,95.048-37.09,105.807-43.342c-9.436-3.208-34.83-14.279-44.136-27.103c-2.86-3.942-0.939-58.939-0.164-78.408
		l-56.736,3.78c-0.649,12.355-4.366,76.309-12.063,84.26c-7.852,8.11-26.16,10.909-28.224,11.202L976.567,1184.563z"/>
	<path style="fill:#FFFFFF;" d="M1100.931,1086.285c8.834-5.861,24.337-17.718,24.752-29.29c0.416-11.572-12.781-10.219-16.812-8.39
		c-2.683,1.218,0.056-56.66,0.056-56.66l-89.555-4.794c0,0-13.269,49.758-10.065,81.71c3.217,32.086,17.927,40.387,41.273,41.431
		c11.564,0.517,20.649-1.989,27.84-5.657L1100.931,1086.285z"/>
	<path style="fill:#0E2549;" d="M1053.526,1111.858c-0.996,0-2-0.022-3.014-0.068c-13.454-0.602-22.433-3.516-29.114-9.451
		c-7.566-6.721-12.01-17.622-13.584-33.327c-3.193-31.856,9.975-81.747,10.108-82.247l0.313-1.176l92.259,4.939l-0.07,1.489
		c-1.098,23.197-1.694,48.984-0.805,54.72c3.247-0.987,9.229-1.657,13.449,1.171c1.979,1.325,4.298,3.987,4.112,9.142
		c-0.437,12.14-16.115,24.312-25.422,30.486c-0.689,0.456-1.62,0.271-2.079-0.421c-0.458-0.69-0.27-1.621,0.421-2.079
		c8.827-5.856,23.693-17.295,24.082-28.094c0.11-3.073-0.8-5.213-2.784-6.542c-3.454-2.313-9.496-1.522-11.908-0.428
		c-0.541,0.247-1.159,0.193-1.652-0.142c-1.009-0.685-2.152-1.461-1.419-30.201c0.285-11.168,0.764-22.325,0.94-26.265l-86.843-4.65
		c-1.957,7.705-12.586,51.39-9.719,79.998c3.212,32.035,17.629,39.087,39.849,40.081c9.955,0.441,19.071-1.404,27.091-5.495
		c0.739-0.376,1.642-0.084,2.018,0.654c0.377,0.738,0.084,1.642-0.654,2.018C1071.434,1109.883,1062.843,1111.858,1053.526,1111.858
		z"/>
	<path style="fill:#FFFFFF;" d="M1162.229,1185.635c-7.358-6.506-36.536-14.45-36.536-14.45l-46.67,10.153l-16.475-6.56
		l-22.607-1.386l-38.884-5.049c0,0-43.159,12.615-50.161,26.803c-24.098,48.82-82.24,355.717-82.24,355.717l52.059,6.199
		l42.186-187.461l3.379,56.552l155.592,6.114l11.698-125.204l31.659,46.935l-46.113,88.596l31.76,29.725l96.354-130.871
		C1247.229,1341.447,1195.471,1215.027,1162.229,1185.635z"/>
	<path style="fill:#0E2549;" d="M921.774,1558.561l-54.729-6.517l0.272-1.435c2.375-12.538,58.452-307.637,82.357-356.066
		c7.185-14.557,49.215-26.985,51.001-27.507l0.274-0.08l0.284,0.036l38.884,5.049l22.732,1.391l16.291,6.487l46.589-10.137
		l0.322,0.088c1.203,0.327,29.57,8.104,37.08,14.744c33.1,29.267,83.24,151.143,85.358,156.316l0.29,0.708l-0.453,0.616
		l-97.263,132.106l-33.635-31.479l4.808-9.236l-0.419-0.017l-156.825-6.162l-2.878-48.169L921.774,1558.561z M870.267,1549.683
		l49.388,5.882l44.031-195.659l3.88,64.935l153.069,6.016l11.933-127.714l34.244,50.767l-46.011,88.397l29.886,27.972l94.989-129.02
		c-4.231-10.22-53.003-126.886-84.35-154.603l0,0c-6.636-5.867-32.492-13.184-35.673-14.067l-46.748,10.171l-16.659-6.634
		l-22.389-1.372l-38.689-5.021c-3.65,1.097-42.674,13.095-49.052,26.018C929.217,1242.143,874.625,1526.832,870.267,1549.683z
		 M1134.571,1310.985l-11.27,120.613l40.344-77.511L1134.571,1310.985z"/>
	<path style="fill:#0E2549;" d="M1028.663,1045.442c-0.108,0-0.219-0.007-0.329-0.021c-1.369-0.18-2.333-1.436-2.152-2.805
		l0.383-2.91c0.18-1.368,1.439-2.332,2.805-2.152c1.369,0.18,2.333,1.436,2.152,2.805l-0.383,2.91
		C1030.974,1044.526,1029.898,1045.442,1028.663,1045.442z"/>
	<path style="fill:#0E2549;" d="M1068.473,1047.184c-0.108,0-0.219-0.007-0.33-0.021c-1.368-0.181-2.332-1.437-2.151-2.806
		l0.384-2.91c0.181-1.368,1.427-2.329,2.806-2.151c1.368,0.181,2.332,1.437,2.151,2.806l-0.384,2.91
		C1070.782,1046.269,1069.708,1047.184,1068.473,1047.184z"/>
	<path style="fill:#0E2549;" d="M1081.788,1034.34c-0.271,0-0.544-0.072-0.79-0.226c-7.226-4.484-15.182-2.505-15.263-2.486
		c-0.8,0.212-1.62-0.275-1.826-1.078c-0.207-0.802,0.275-1.62,1.078-1.826c0.376-0.098,9.292-2.311,17.593,2.842
		c0.704,0.437,0.92,1.361,0.483,2.065C1082.779,1034.089,1082.289,1034.34,1081.788,1034.34z"/>
	<path style="fill:#0E2549;" d="M1041.671,1065.17c-2.509,0.001-10.896-2.454-12.295-4.326c-0.553-0.739-0.574-1.634-0.058-2.335
		c3.252-4.402,5.882-8.313,7.672-15.139c1.524-5.812,2.106-9.293,1.833-10.956c-0.15-0.91-0.379-1.046-1.9-1.572
		c-0.237-0.082-0.484-0.168-0.74-0.263c-3.902-1.451-12.145-0.098-14.99,0.544c-0.809,0.184-1.612-0.324-1.794-1.132
		c-0.183-0.808,0.323-1.611,1.132-1.794c0.453-0.103,11.156-2.488,16.697-0.431c0.233,0.087,0.459,0.165,0.677,0.24
		c4.485,1.552,5.238,3.733,1.988,16.125c-1.801,6.864-4.468,11.094-7.532,15.303c1.946,1.048,7.358,2.63,8.959,2.771
		c0.106-0.031,0.219-0.051,0.334-0.058c0.847-0.021,1.536,0.587,1.583,1.413c0.037,0.66-0.408,1.317-1.03,1.544
		C1042.085,1065.149,1041.902,1065.17,1041.671,1065.17z"/>
	<path style="fill:#A1C5E2;" d="M1146.786,1489.184c-0.076,0-0.154-0.006-0.232-0.018l-75.006-11.642
		c-0.818-0.127-1.379-0.894-1.252-1.713c0.128-0.818,0.894-1.372,1.713-1.252l75.006,11.642c0.818,0.127,1.379,0.894,1.252,1.713
		C1148.151,1488.654,1147.513,1489.184,1146.786,1489.184z"/>
	<polygon style="fill:#FFFFFF;" points="1145.032,1175.654 1116.371,1151.639 1054.536,1174.263 1073.259,1198.278 	"/>
	<polygon style="fill:#FFFFFF;" points="987.185,1172.696 1008.517,1151.639 1054.536,1174.263 1036.146,1195.146 	"/>
	<path style="fill:#0E2549;" d="M1072.688,1200.114l75.567-23.82l-31.569-26.452l-62.34,22.809l-46.097-22.662l-23.424,23.124
		l51.674,23.695l16-18.169c-2.903,28.558-18.203,183.983-14.135,247.615c0.054,0.836,0.748,1.479,1.574,1.479
		c0.034,0,0.068-0.001,0.103-0.003c0.871-0.056,1.531-0.807,1.476-1.677c-4.083-63.875,11.46-220.953,14.188-247.723
		L1072.688,1200.114z M1116.057,1153.436l25.753,21.579l-67.979,21.428l-16.716-21.441L1116.057,1153.436z M1035.794,1193.485
		l-46.247-21.205l19.237-18.991l43.552,21.41L1035.794,1193.485z"/>
	<path style="fill:#0E2549;" d="M1027.834,1071.968c-1.46,1.614,6.079,8.152,12.242,8.157c15.491,0.013,20.284-11.001,16.797-9.268
		c-1.316,0.654-9.134,4.155-16.797,3.593C1030.246,1073.729,1029.491,1070.136,1027.834,1071.968z"/>
	<path style="fill:#0E2549;" d="M1015.211,987.151c0,0,83.792,19.796,91.952,61.544c0,0,5.42-1.267,8.944-0.288
		c4.543,1.262,5.873,3.133,5.873,3.133l7.537-66.076L1015.211,987.151z"/>
	<path style="fill:#E2474B;" d="M1161.586,982.484v15.61h-161.11v-15.61c0-29.667,16.19-55.58,40.25-69.448
		c11.851-6.829,25.62-10.742,40.3-10.742c15.94,0,30.791,4.6,43.291,12.554c4.949,3.146,9.539,6.81,13.67,10.931
		C1152.566,940.294,1161.586,960.344,1161.586,982.484z"/>
	<path style="fill:#EAB7C2;" d="M1124.316,914.475c0,0-63.97,21.907-82.437,84.625c-1.849,6.277-27.491,6.401-29-2
		c-8-44.537,27.846-84.444,27.846-84.444c11.851-6.86,25.62-10.79,40.3-10.79C1096.966,901.865,1111.816,906.484,1124.316,914.475z"
		/>
	<path style="fill:#E2474B;" d="M1156.363,1008.266H988.367c-3.939,0-7.132-3.193-7.132-7.132v-0.636
		c0-3.939,3.193-7.132,7.132-7.132h167.997c3.939,0,7.132,3.193,7.132,7.132v0.636
		C1163.495,1005.072,1160.303,1008.266,1156.363,1008.266z"/>
	<path style="fill:#0E2549;" d="M962.9,1370.964c-0.011,0-0.022,0-0.033,0c-0.753-0.019-1.348-0.643-1.33-1.396
		c1.175-48.874,13.388-106.069,13.511-106.642c0.159-0.735,0.887-1.2,1.619-1.045c0.735,0.158,1.203,0.884,1.045,1.619
		c-0.123,0.569-12.282,57.521-13.451,106.134C964.244,1370.375,963.638,1370.964,962.9,1370.964z"/>
</g>
</svg>
